<?xml version="1.0" encoding="UTF-8" standalone="no"?>
<!-- Created with Inkscape (http://www.inkscape.org/) -->

<svg
   xmlns:dc="http://purl.org/dc/elements/1.1/"
   xmlns:cc="http://creativecommons.org/ns#"
   xmlns:rdf="http://www.w3.org/1999/02/22-rdf-syntax-ns#"
   xmlns:svg="http://www.w3.org/2000/svg"
   xmlns="http://www.w3.org/2000/svg"
   xmlns:xlink="http://www.w3.org/1999/xlink"
   xmlns:sodipodi="http://sodipodi.sourceforge.net/DTD/sodipodi-0.dtd"
   xmlns:inkscape="http://www.inkscape.org/namespaces/inkscape"
   width="250"
   height="174.73801"
   viewBox="0 0 66.145832 46.232766"
   version="1.1"
   id="svg8"
   inkscape:version="0.92.5 (2060ec1f9f, 2020-04-08)"
   sodipodi:docname="logo_vre_embeded_text.svg">
  <defs
     id="defs2">
    <marker
       inkscape:stockid="Arrow1Lstart"
       orient="auto"
       refY="0"
       refX="0"
       id="marker1752"
       style="overflow:visible"
       inkscape:isstock="true">
      <path
         id="path1750"
         d="M 0,0 5,-5 -12.5,0 5,5 Z"
         style="fill:#065075;fill-opacity:0.94901961;fill-rule:evenodd;stroke:none;stroke-width:1.00000003pt;stroke-opacity:1"
         transform="matrix(0.8,0,0,0.8,10,0)"
         inkscape:connector-curvature="0" />
    </marker>
    <marker
       inkscape:stockid="Arrow1Lstart"
       orient="auto"
       refY="0"
       refX="0"
       id="marker1724"
       style="overflow:visible"
       inkscape:isstock="true">
      <path
         id="path1722"
         d="M 0,0 5,-5 -12.5,0 5,5 Z"
         style="fill:#065075;fill-opacity:0.94901961;fill-rule:evenodd;stroke:none;stroke-width:1.00000003pt;stroke-opacity:1"
         transform="matrix(0.8,0,0,0.8,10,0)"
         inkscape:connector-curvature="0" />
    </marker>
    <marker
       inkscape:stockid="Arrow1Lstart"
       orient="auto"
       refY="0"
       refX="0"
       id="marker1702"
       style="overflow:visible"
       inkscape:isstock="true">
      <path
         id="path1700"
         d="M 0,0 5,-5 -12.5,0 5,5 Z"
         style="fill:#065075;fill-opacity:0.94901961;fill-rule:evenodd;stroke:none;stroke-width:1.00000003pt;stroke-opacity:1"
         transform="matrix(0.8,0,0,0.8,10,0)"
         inkscape:connector-curvature="0" />
    </marker>
    <marker
       inkscape:stockid="Arrow1Lstart"
       orient="auto"
       refY="0"
       refX="0"
       id="Arrow1Lstart"
       style="overflow:visible"
       inkscape:isstock="true">
      <path
         id="path1424"
         d="M 0,0 5,-5 -12.5,0 5,5 Z"
         style="fill:#065075;fill-opacity:0.94901961;fill-rule:evenodd;stroke:none;stroke-width:1.00000003pt;stroke-opacity:1"
         transform="matrix(0.8,0,0,0.8,10,0)"
         inkscape:connector-curvature="0" />
    </marker>
    <linearGradient
       inkscape:collect="always"
       id="linearGradient987">
      <stop
         style="stop-color:#074f74;stop-opacity:1;"
         offset="0"
         id="stop983" />
      <stop
         style="stop-color:#074f74;stop-opacity:0;"
         offset="1"
         id="stop985" />
    </linearGradient>
    <radialGradient
       inkscape:collect="always"
       xlink:href="#linearGradient987"
       id="radialGradient989"
       cx="54.546688"
       cy="42.716522"
       fx="54.546688"
       fy="42.716522"
       r="0.37506971"
       gradientTransform="matrix(1,0,0,22.429253,0,-915.38313)"
       gradientUnits="userSpaceOnUse" />
    <radialGradient
       inkscape:collect="always"
       xlink:href="#linearGradient987"
       id="radialGradient997"
       cx="54.546688"
       cy="42.716522"
       fx="54.546688"
       fy="42.716522"
       r="0.37485921"
       gradientTransform="matrix(1,0,0,22.441844,0,-915.92099)"
       gradientUnits="userSpaceOnUse" />
  </defs>
  <sodipodi:namedview
     id="base"
     pagecolor="#ffffff"
     bordercolor="#666666"
     borderopacity="1.0"
     inkscape:pageopacity="0.0"
     inkscape:pageshadow="2"
     inkscape:zoom="2.9077441"
     inkscape:cx="150.88348"
     inkscape:cy="79.539744"
     inkscape:document-units="mm"
     inkscape:current-layer="g1996"
     showgrid="false"
     showguides="true"
     inkscape:guide-bbox="true"
     inkscape:snap-global="false"
     inkscape:window-width="1848"
     inkscape:window-height="1009"
     inkscape:window-x="72"
     inkscape:window-y="34"
     inkscape:window-maximized="1"
     units="px" />
  <metadata
     id="metadata5">
    <rdf:RDF>
      <cc:Work
         rdf:about="">
        <dc:format>image/svg+xml</dc:format>
        <dc:type
           rdf:resource="http://purl.org/dc/dcmitype/StillImage" />
        <dc:title></dc:title>
      </cc:Work>
    </rdf:RDF>
  </metadata>
  <g
     inkscape:label="Capa 1"
     inkscape:groupmode="layer"
     id="layer1"
     transform="translate(0,-250.7672)">
    <g
       id="g1996"
       inkscape:label="logo_vre"
       transform="matrix(2.7478557,0,0,2.7478557,-148.85637,156.50475)">
      <g
         aria-label="Virtual
Research
Environment"
         transform="matrix(0.26458333,0,0,0.26458333,5.0743306,-0.74370379)"
         style="font-style:normal;font-variant:normal;font-weight:normal;font-stretch:normal;font-size:13.33333302px;line-height:1.25;font-family:'Futura Round';-inkscape-font-specification:'Futura Round';letter-spacing:0px;word-spacing:0px;fill:#065075;fill-opacity:0.94901961;stroke:none;stroke-width:0.75590551;stroke-miterlimit:4;stroke-dasharray:none"
         id="flowRoot91"
         inkscape:label="virtual_research_environment">
        <path
           d="m 201.58008,150.79948 2.90625,-7.8125 q 0.0937,-0.23438 0.14844,-0.27344 0.0625,-0.0469 0.3125,-0.0469 h 0.42187 q 0.41406,0 0.41406,0.21875 0,0.0781 -0.0781,0.27343 l -3.84375,10.03907 q -0.125,0.3125 -0.28906,0.3125 -0.17969,0 -0.30469,-0.3125 l -3.82813,-10.03907 q -0.0781,-0.19531 -0.0781,-0.27343 0,-0.21875 0.41406,-0.21875 h 0.4375 q 0.25,0 0.30469,0.0469 0.0625,0.0391 0.15625,0.27344 z"
           style="font-style:normal;font-variant:normal;font-weight:normal;font-stretch:normal;font-size:16px;line-height:0;font-family:'Futura Round';-inkscape-font-specification:'Futura Round';letter-spacing:0.2px;fill:#065075;fill-opacity:0.94901961;stroke-width:0.75590551;stroke-miterlimit:4;stroke-dasharray:none"
           id="path29"
           inkscape:connector-curvature="0" />
        <path
           d="m 208.45195,147.10417 v 5.80468 q 0,0.28125 -0.0703,0.35157 -0.0703,0.0703 -0.34375,0.0703 h -0.30469 q -0.28125,0 -0.35156,-0.0703 -0.0703,-0.0703 -0.0703,-0.35157 v -5.80468 q 0,-0.28125 0.0703,-0.35157 0.0703,-0.0703 0.35156,-0.0703 h 0.30469 q 0.27344,0 0.34375,0.0703 0.0703,0.0703 0.0703,0.35157 z m -0.5625,-3.73438 q 0.33594,0 0.57032,0.24219 0.24218,0.23437 0.24218,0.57031 0,0.34375 -0.24218,0.58594 -0.23438,0.23437 -0.57813,0.23437 -0.33594,0 -0.57812,-0.24218 -0.23438,-0.24219 -0.23438,-0.58594 0,-0.32813 0.24219,-0.5625 0.24219,-0.24219 0.57812,-0.24219 z"
           style="font-style:normal;font-variant:normal;font-weight:normal;font-stretch:normal;font-size:16px;line-height:0;font-family:'Futura Round';-inkscape-font-specification:'Futura Round';letter-spacing:0.2px;fill:#065075;fill-opacity:0.94901961;stroke-width:0.75590551;stroke-miterlimit:4;stroke-dasharray:none"
           id="path31"
           inkscape:connector-curvature="0" />
        <path
           d="m 211.97227,147.40104 q 0.4375,-0.53906 0.73437,-0.71094 0.29688,-0.17187 0.78125,-0.17187 0.375,0 0.64063,0.10937 0.27343,0.10938 0.27343,0.27344 0,0.0703 -0.10937,0.28125 l -0.14844,0.27344 q -0.0937,0.17969 -0.14844,0.23437 -0.0547,0.0547 -0.14843,0.0547 -0.0625,0 -0.17188,-0.0625 -0.13281,-0.0781 -0.36719,-0.0781 -0.33593,0 -0.63281,0.17187 -0.29687,0.16406 -0.44531,0.42969 -0.25781,0.47656 -0.25781,1.625 v 3.07812 q 0,0.28125 -0.0703,0.35157 -0.0703,0.0703 -0.34375,0.0703 h -0.30468 q -0.28125,0 -0.35157,-0.0703 -0.0703,-0.0703 -0.0703,-0.35157 v -5.80468 q 0,-0.28125 0.0703,-0.35157 0.0703,-0.0703 0.35157,-0.0703 h 0.30468 q 0.27344,0 0.34375,0.0703 0.0703,0.0703 0.0703,0.35157 z"
           style="font-style:normal;font-variant:normal;font-weight:normal;font-stretch:normal;font-size:16px;line-height:0;font-family:'Futura Round';-inkscape-font-specification:'Futura Round';letter-spacing:0.2px;fill:#065075;fill-opacity:0.94901961;stroke-width:0.75590551;stroke-miterlimit:4;stroke-dasharray:none"
           id="path33"
           inkscape:connector-curvature="0" />
        <path
           d="m 217.3207,147.73698 v 5.17187 q 0,0.28125 -0.0703,0.35157 -0.0703,0.0703 -0.35156,0.0703 h -0.30469 q -0.27344,0 -0.34375,-0.0703 -0.0703,-0.0703 -0.0703,-0.35157 v -5.17187 h -0.27344 q -0.28125,0 -0.35156,-0.0703 -0.0703,-0.0703 -0.0703,-0.35157 v -0.21093 q 0,-0.28125 0.0703,-0.35157 0.0703,-0.0703 0.35156,-0.0703 h 0.27344 v -1.96875 q 0,-0.28125 0.0703,-0.35156 0.0703,-0.0703 0.34375,-0.0703 h 0.30469 q 0.28125,0 0.35156,0.0703 0.0703,0.0703 0.0703,0.35156 v 1.96875 h 0.75 q 0.28125,0 0.35157,0.0703 0.0703,0.0703 0.0703,0.35157 v 0.21093 q 0,0.28125 -0.0703,0.35157 -0.0703,0.0703 -0.35157,0.0703 z"
           style="font-style:normal;font-variant:normal;font-weight:normal;font-stretch:normal;font-size:16px;line-height:0;font-family:'Futura Round';-inkscape-font-specification:'Futura Round';letter-spacing:0.2px;fill:#065075;fill-opacity:0.94901961;stroke-width:0.75590551;stroke-miterlimit:4;stroke-dasharray:none"
           id="path35"
           inkscape:connector-curvature="0" />
        <path
           d="m 220.94258,147.10417 v 3.46093 q 0,0.85938 0.20312,1.24219 0.17188,0.32031 0.51563,0.50781 0.35156,0.17969 0.77343,0.17969 0.42969,0 0.77344,-0.17969 0.34375,-0.1875 0.51563,-0.50781 0.20312,-0.38281 0.20312,-1.24219 v -3.46093 q 0,-0.28125 0.0703,-0.35157 0.0703,-0.0703 0.34375,-0.0703 h 0.3125 q 0.27344,0 0.34375,0.0703 0.0703,0.0703 0.0703,0.35157 v 3.58593 q 0,0.73438 -0.14063,1.1875 -0.13281,0.44532 -0.46094,0.8125 -0.75,0.83594 -2.03125,0.83594 -1.28125,0 -2.03125,-0.83594 -0.32812,-0.36718 -0.46875,-0.8125 -0.13281,-0.45312 -0.13281,-1.1875 v -3.58593 q 0,-0.28125 0.0703,-0.35157 0.0703,-0.0703 0.35157,-0.0703 h 0.30468 q 0.27344,0 0.34375,0.0703 0.0703,0.0703 0.0703,0.35157 z"
           style="font-style:normal;font-variant:normal;font-weight:normal;font-stretch:normal;font-size:16px;line-height:0;font-family:'Futura Round';-inkscape-font-specification:'Futura Round';letter-spacing:0.2px;fill:#065075;fill-opacity:0.94901961;stroke-width:0.75590551;stroke-miterlimit:4;stroke-dasharray:none"
           id="path37"
           inkscape:connector-curvature="0" />
        <path
           d="m 232.50977,152.40885 q -0.92969,1.11719 -2.28907,1.11719 -1.47656,0 -2.41406,-1.13281 -0.78906,-0.95313 -0.78906,-2.39844 0,-1.67969 1.05469,-2.64844 0.89843,-0.82031 2.125,-0.82031 1.375,0 2.3125,1.10156 v -0.52343 q 0,-0.28125 0.0703,-0.35157 0.0703,-0.0703 0.35156,-0.0703 h 0.30469 q 0.28125,0 0.35156,0.0703 0.0703,0.0703 0.0703,0.35157 v 5.80468 q 0,0.28125 -0.0703,0.35157 -0.0703,0.0703 -0.35156,0.0703 h -0.30469 q -0.28125,0 -0.35156,-0.0703 -0.0703,-0.0703 -0.0703,-0.35157 z m -2.15625,-4.85156 q -0.95313,0 -1.59375,0.74219 -0.57813,0.67187 -0.57813,1.75 0,1.10156 0.70313,1.82031 0.60156,0.625 1.49218,0.625 1.05469,0 1.70313,-0.82812 0.50781,-0.64844 0.50781,-1.66407 0,-1.19531 -0.69531,-1.83593 -0.65625,-0.60938 -1.53906,-0.60938 z"
           style="font-style:normal;font-variant:normal;font-weight:normal;font-stretch:normal;font-size:16px;line-height:0;font-family:'Futura Round';-inkscape-font-specification:'Futura Round';letter-spacing:0.2px;fill:#065075;fill-opacity:0.94901961;stroke-width:0.75590551;stroke-miterlimit:4;stroke-dasharray:none"
           id="path39"
           inkscape:connector-curvature="0" />
        <path
           d="m 237.1707,142.08073 v 10.82812 q 0,0.28125 -0.0703,0.35157 -0.0703,0.0703 -0.34375,0.0703 h -0.30469 q -0.28125,0 -0.35156,-0.0703 -0.0703,-0.0703 -0.0703,-0.35157 v -10.82812 q 0,-0.28125 0.0703,-0.35156 0.0703,-0.0703 0.35156,-0.0703 h 0.30469 q 0.27344,0 0.34375,0.0703 0.0703,0.0703 0.0703,0.35156 z"
           style="font-style:normal;font-variant:normal;font-weight:normal;font-stretch:normal;font-size:16px;line-height:0;font-family:'Futura Round';-inkscape-font-specification:'Futura Round';letter-spacing:0.2px;fill:#065075;fill-opacity:0.94901961;stroke-width:0.75590551;stroke-miterlimit:4;stroke-dasharray:none"
           id="path41"
           inkscape:connector-curvature="0" />
        <path
           d="m 201.30664,165.22396 3.01563,4.24219 q 0.14062,0.20313 0.14062,0.30469 0,0.22656 -0.42187,0.22656 h -0.5 q -0.23438,0 -0.28907,-0.0234 -0.0469,-0.0312 -0.17968,-0.22656 l -3.04688,-4.42969 h -0.30469 v 4.25782 q 0,0.28125 -0.0703,0.35156 -0.0703,0.0703 -0.35156,0.0703 h -0.35156 q -0.28125,0 -0.35157,-0.0703 -0.0703,-0.0703 -0.0703,-0.35156 v -9.82813 q 0,-0.27344 0.0703,-0.34375 0.0703,-0.0703 0.35157,-0.0703 h 1.30468 q 1.125,0 1.76563,0.20312 1.03125,0.32813 1.53906,1.17969 0.42969,0.71094 0.42969,1.60938 0,1.5625 -1.15625,2.36718 -0.66406,0.46094 -1.52344,0.53125 z m -1.58594,-0.95312 h 0.74219 q 1.08594,0 1.65625,-0.42969 0.69531,-0.53125 0.69531,-1.51562 0,-1.04688 -0.77343,-1.53907 -0.55469,-0.34375 -1.60938,-0.34375 h -0.71094 z"
           style="font-style:normal;font-variant:normal;font-weight:normal;font-stretch:normal;font-size:16px;line-height:0;font-family:'Futura Round';-inkscape-font-specification:'Futura Round';letter-spacing:0.2px;fill:#065075;fill-opacity:0.94901961;stroke-width:0.75590551;stroke-miterlimit:4;stroke-dasharray:none"
           id="path43"
           inkscape:connector-curvature="0" />
        <path
           d="m 206.93633,166.91146 q 0.0312,0.67969 0.28125,1.14844 0.28125,0.52344 0.76562,0.8125 0.48438,0.28906 1.0625,0.28906 1.17969,0 1.85938,-1.09375 0.13281,-0.21875 0.27344,-0.21875 0.0625,0 0.26562,0.11719 l 0.23438,0.13281 q 0.28125,0.15625 0.28125,0.29688 0,0.0859 -0.0937,0.22656 -1.03125,1.57031 -2.85938,1.57031 -1.59375,0 -2.53125,-1.15625 -0.74219,-0.92187 -0.74219,-2.32031 0,-1.61719 0.94532,-2.59375 0.89062,-0.92187 2.27343,-0.92187 1.39844,0 2.28125,0.95312 0.88282,0.95313 0.88282,2.46875 0,0.17188 -0.0859,0.23438 -0.0859,0.0547 -0.33594,0.0547 z m 3.97656,-0.96093 q -0.10937,-0.55469 -0.38281,-0.92969 -0.58594,-0.78906 -1.5625,-0.78906 -0.72656,0 -1.28125,0.48437 -0.54688,0.48438 -0.67969,1.23438 z"
           style="font-style:normal;font-variant:normal;font-weight:normal;font-stretch:normal;font-size:16px;line-height:0;font-family:'Futura Round';-inkscape-font-specification:'Futura Round';letter-spacing:0.2px;fill:#065075;fill-opacity:0.94901961;stroke-width:0.75590551;stroke-miterlimit:4;stroke-dasharray:none"
           id="path45"
           inkscape:connector-curvature="0" />
        <path
           d="m 217.34727,164.59896 -0.21094,0.10938 q -0.20313,0.10937 -0.27344,0.10937 -0.0859,0 -0.19531,-0.14843 -0.32813,-0.4375 -0.8125,-0.4375 -0.32813,0 -0.5625,0.21875 -0.23438,0.21093 -0.23438,0.52343 0,0.28907 0.21875,0.48438 0.21875,0.19531 0.85157,0.46094 0.89843,0.375 1.26562,0.64062 0.73438,0.53125 0.73438,1.46094 0,0.97656 -0.71094,1.60156 -0.64844,0.57031 -1.5625,0.57031 -0.63281,0 -1.17969,-0.28906 -0.53906,-0.29687 -0.86719,-0.8125 -0.20312,-0.32812 -0.20312,-0.46094 0,-0.16406 0.30469,-0.29687 l 0.25,-0.10156 q 0.20312,-0.0859 0.27343,-0.0859 0.125,0 0.27344,0.28125 0.38281,0.73437 1.15625,0.73437 0.5625,0 0.86719,-0.375 0.23437,-0.29687 0.23437,-0.67187 0,-0.38281 -0.22656,-0.60938 -0.21875,-0.23437 -0.85156,-0.50781 -0.92188,-0.39062 -1.32813,-0.6875 -0.59375,-0.42969 -0.59375,-1.24219 0,-0.86718 0.625,-1.39062 0.57032,-0.47656 1.3125,-0.47656 0.51563,0 0.97657,0.25781 0.46875,0.25781 0.69531,0.66406 0.0547,0.10938 0.0547,0.17969 0,0.14844 -0.28125,0.29687 z"
           style="font-style:normal;font-variant:normal;font-weight:normal;font-stretch:normal;font-size:16px;line-height:0;font-family:'Futura Round';-inkscape-font-specification:'Futura Round';letter-spacing:0.2px;fill:#065075;fill-opacity:0.94901961;stroke-width:0.75590551;stroke-miterlimit:4;stroke-dasharray:none"
           id="path47"
           inkscape:connector-curvature="0" />
        <path
           d="m 220.64102,166.91146 q 0.0312,0.67969 0.28125,1.14844 0.28125,0.52344 0.76562,0.8125 0.48438,0.28906 1.0625,0.28906 1.17969,0 1.85938,-1.09375 0.13281,-0.21875 0.27343,-0.21875 0.0625,0 0.26563,0.11719 l 0.23437,0.13281 q 0.28125,0.15625 0.28125,0.29688 0,0.0859 -0.0937,0.22656 -1.03125,1.57031 -2.85937,1.57031 -1.59375,0 -2.53125,-1.15625 -0.74219,-0.92187 -0.74219,-2.32031 0,-1.61719 0.94531,-2.59375 0.89063,-0.92187 2.27344,-0.92187 1.39844,0 2.28125,0.95312 0.88281,0.95313 0.88281,2.46875 0,0.17188 -0.0859,0.23438 -0.0859,0.0547 -0.33594,0.0547 z m 3.97656,-0.96093 q -0.10938,-0.55469 -0.38281,-0.92969 -0.58594,-0.78906 -1.5625,-0.78906 -0.72657,0 -1.28125,0.48437 -0.54688,0.48438 -0.67969,1.23438 z"
           style="font-style:normal;font-variant:normal;font-weight:normal;font-stretch:normal;font-size:16px;line-height:0;font-family:'Futura Round';-inkscape-font-specification:'Futura Round';letter-spacing:0.2px;fill:#065075;fill-opacity:0.94901961;stroke-width:0.75590551;stroke-miterlimit:4;stroke-dasharray:none"
           id="path49"
           inkscape:connector-curvature="0" />
        <path
           d="m 232.82539,169.07553 q -0.92969,1.11718 -2.28906,1.11718 -1.47657,0 -2.41407,-1.13281 -0.78906,-0.95312 -0.78906,-2.39844 0,-1.67968 1.05469,-2.64843 0.89844,-0.82032 2.125,-0.82032 1.375,0 2.3125,1.10157 v -0.52344 q 0,-0.28125 0.0703,-0.35156 0.0703,-0.0703 0.35156,-0.0703 h 0.30469 q 0.28125,0 0.35156,0.0703 0.0703,0.0703 0.0703,0.35156 v 5.80469 q 0,0.28125 -0.0703,0.35156 -0.0703,0.0703 -0.35156,0.0703 h -0.30469 q -0.28125,0 -0.35156,-0.0703 -0.0703,-0.0703 -0.0703,-0.35156 z m -2.15625,-4.85157 q -0.95313,0 -1.59375,0.74219 -0.57813,0.67188 -0.57813,1.75 0,1.10156 0.70313,1.82031 0.60156,0.625 1.49219,0.625 1.05468,0 1.70312,-0.82812 0.50781,-0.64844 0.50781,-1.66406 0,-1.19532 -0.69531,-1.83594 -0.65625,-0.60938 -1.53906,-0.60938 z"
           style="font-style:normal;font-variant:normal;font-weight:normal;font-stretch:normal;font-size:16px;line-height:0;font-family:'Futura Round';-inkscape-font-specification:'Futura Round';letter-spacing:0.2px;fill:#065075;fill-opacity:0.94901961;stroke-width:0.75590551;stroke-miterlimit:4;stroke-dasharray:none"
           id="path51"
           inkscape:connector-curvature="0" />
        <path
           d="m 237.48633,164.06771 q 0.4375,-0.53906 0.73437,-0.71093 0.29688,-0.17188 0.78125,-0.17188 0.375,0 0.64063,0.10938 0.27344,0.10937 0.27344,0.27343 0,0.0703 -0.10938,0.28125 l -0.14844,0.27344 q -0.0937,0.17969 -0.14843,0.23438 -0.0547,0.0547 -0.14844,0.0547 -0.0625,0 -0.17188,-0.0625 -0.13281,-0.0781 -0.36718,-0.0781 -0.33594,0 -0.63282,0.17187 -0.29687,0.16407 -0.44531,0.42969 -0.25781,0.47656 -0.25781,1.625 v 3.07813 q 0,0.28125 -0.0703,0.35156 -0.0703,0.0703 -0.34375,0.0703 h -0.30469 q -0.28125,0 -0.35156,-0.0703 -0.0703,-0.0703 -0.0703,-0.35156 v -5.80469 q 0,-0.28125 0.0703,-0.35156 0.0703,-0.0703 0.35156,-0.0703 h 0.30469 q 0.27343,0 0.34375,0.0703 0.0703,0.0703 0.0703,0.35156 z"
           style="font-style:normal;font-variant:normal;font-weight:normal;font-stretch:normal;font-size:16px;line-height:0;font-family:'Futura Round';-inkscape-font-specification:'Futura Round';letter-spacing:0.2px;fill:#065075;fill-opacity:0.94901961;stroke-width:0.75590551;stroke-miterlimit:4;stroke-dasharray:none"
           id="path53"
           inkscape:connector-curvature="0" />
        <path
           d="m 246.17852,164.13803 v 0.44531 q 0,0.39062 -0.25782,0.39062 -0.0703,0 -0.1875,-0.0937 -0.47656,-0.36718 -0.83593,-0.50781 -0.35157,-0.14062 -0.79688,-0.14062 -1.07812,0 -1.75,0.78906 -0.60937,0.70312 -0.60937,1.67969 0,1.02343 0.65625,1.74218 0.65625,0.71094 1.67968,0.71094 0.47657,0 0.83594,-0.14062 0.35938,-0.14844 0.86719,-0.55469 0.10937,-0.0859 0.17969,-0.0859 0.25781,0 0.25781,0.375 v 0.44531 q 0,0.28907 -0.0937,0.36719 -0.36719,0.28125 -0.92969,0.45313 -0.5625,0.17968 -1.08594,0.17968 -1.70312,0 -2.72656,-1.24218 -0.80469,-0.97657 -0.80469,-2.23438 0,-1.5 1.07032,-2.55469 0.96875,-0.96093 2.46875,-0.96093 0.53906,0 1.10937,0.17187 0.57031,0.16406 0.86719,0.41406 0.0859,0.0703 0.0859,0.35157 z"
           style="font-style:normal;font-variant:normal;font-weight:normal;font-stretch:normal;font-size:16px;line-height:0;font-family:'Futura Round';-inkscape-font-specification:'Futura Round';letter-spacing:0.2px;fill:#065075;fill-opacity:0.94901961;stroke-width:0.75590551;stroke-miterlimit:4;stroke-dasharray:none"
           id="path55"
           inkscape:connector-curvature="0" />
        <path
           d="m 249.08945,164.13021 q 0.3125,-0.36718 0.57032,-0.53906 0.57031,-0.39062 1.33593,-0.39062 0.59375,0 1.10157,0.25 0.51562,0.24218 0.79687,0.65625 0.39063,0.57031 0.39063,1.77343 v 3.69532 q 0,0.28125 -0.0703,0.35156 -0.0703,0.0703 -0.34375,0.0703 h -0.30468 q -0.28125,0 -0.35157,-0.0703 -0.0703,-0.0703 -0.0703,-0.35156 v -3.61719 q 0,-0.79688 -0.21875,-1.17969 -0.32031,-0.54687 -1.15625,-0.54687 -1.03125,0 -1.41406,0.78906 -0.26563,0.54687 -0.26563,1.65625 v 2.89844 q 0,0.28125 -0.0703,0.35156 -0.0703,0.0703 -0.34375,0.0703 h -0.30469 q -0.28125,0 -0.35156,-0.0703 -0.0703,-0.0703 -0.0703,-0.35156 v -10.83594 q 0,-0.27344 0.0703,-0.34375 0.0703,-0.0703 0.35156,-0.0703 h 0.30469 q 0.27344,0 0.34375,0.0703 0.0703,0.0703 0.0703,0.34375 z"
           style="font-style:normal;font-variant:normal;font-weight:normal;font-stretch:normal;font-size:16px;line-height:0;font-family:'Futura Round';-inkscape-font-specification:'Futura Round';letter-spacing:0.2px;fill:#065075;fill-opacity:0.94901961;stroke-width:0.75590551;stroke-miterlimit:4;stroke-dasharray:none"
           id="path57"
           inkscape:connector-curvature="0" />
        <path
           d="m 199.7207,177.10938 v 3.16407 h 3.79688 q 0.27344,0 0.34375,0.0703 0.0703,0.0703 0.0703,0.35156 v 0.27344 q 0,0.27344 -0.0703,0.34375 -0.0703,0.0703 -0.34375,0.0703 h -3.79688 v 4.17188 h 3.91407 q 0.27343,0 0.34375,0.0703 0.0703,0.0703 0.0703,0.35156 v 0.26563 q 0,0.28125 -0.0703,0.35156 -0.0703,0.0703 -0.34375,0.0703 h -4.6875 q -0.28125,0 -0.35157,-0.0703 -0.0703,-0.0703 -0.0703,-0.35156 v -9.82813 q 0,-0.27344 0.0703,-0.34375 0.0703,-0.0703 0.35157,-0.0703 h 4.6875 q 0.27343,0 0.34375,0.0703 0.0703,0.0703 0.0703,0.34375 v 0.27344 q 0,0.28125 -0.0703,0.35156 -0.0703,0.0703 -0.34375,0.0703 z"
           style="letter-spacing:0.2px;stroke-width:0.75590551;stroke-miterlimit:4;stroke-dasharray:none"
           id="path59"
           inkscape:connector-curvature="0" />
        <path
           d="m 207.28008,180.82032 q 0.3125,-0.38281 0.5625,-0.5625 0.55469,-0.39844 1.34375,-0.39844 0.60156,0 1.10937,0.25 0.51563,0.24219 0.78907,0.66407 0.375,0.57031 0.375,1.76562 v 3.70313 q 0,0.28125 -0.0703,0.35156 -0.0703,0.0703 -0.34375,0.0703 h -0.3125 q -0.27343,0 -0.34375,-0.0703 -0.0703,-0.0703 -0.0703,-0.35156 v -3.50782 q 0,-0.92968 -0.21875,-1.28906 -0.33594,-0.55469 -1.17187,-0.55469 -0.86719,0 -1.25782,0.58594 -0.39062,0.57813 -0.39062,1.86719 v 2.89844 q 0,0.28125 -0.0703,0.35156 -0.0703,0.0703 -0.34375,0.0703 h -0.30469 q -0.28125,0 -0.35156,-0.0703 -0.0703,-0.0703 -0.0703,-0.35156 v -5.80469 q 0,-0.28125 0.0703,-0.35156 0.0703,-0.0703 0.35156,-0.0703 h 0.30469 q 0.27343,0 0.34375,0.0703 0.0703,0.0703 0.0703,0.35156 z"
           style="letter-spacing:0.2px;stroke-width:0.75590551;stroke-miterlimit:4;stroke-dasharray:none"
           id="path61"
           inkscape:connector-curvature="0" />
        <path
           d="m 215.92539,184.4922 1.83594,-4.17188 q 0.10156,-0.22656 0.15625,-0.26562 0.0625,-0.0391 0.3125,-0.0391 h 0.38281 q 0.42969,0 0.42188,0.22657 -0.008,0.0859 -0.0937,0.28125 l -2.72657,5.92968 q -0.13281,0.29688 -0.28906,0.29688 -0.17187,0 -0.30469,-0.29688 l -2.72656,-5.92968 q -0.0937,-0.20313 -0.0937,-0.28125 0,-0.22657 0.41406,-0.22657 h 0.39844 q 0.24219,0 0.30469,0.0391 0.0625,0.0391 0.15625,0.26562 z"
           style="letter-spacing:0.2px;stroke-width:0.75590551;stroke-miterlimit:4;stroke-dasharray:none"
           id="path63"
           inkscape:connector-curvature="0" />
        <path
           d="m 221.73477,180.43751 v 5.80469 q 0,0.28125 -0.0703,0.35156 -0.0703,0.0703 -0.34375,0.0703 h -0.30468 q -0.28125,0 -0.35157,-0.0703 -0.0703,-0.0703 -0.0703,-0.35156 v -5.80469 q 0,-0.28125 0.0703,-0.35156 0.0703,-0.0703 0.35157,-0.0703 h 0.30468 q 0.27344,0 0.34375,0.0703 0.0703,0.0703 0.0703,0.35156 z m -0.5625,-3.73438 q 0.33593,0 0.57031,0.24219 0.24219,0.23438 0.24219,0.57031 0,0.34375 -0.24219,0.58594 -0.23438,0.23438 -0.57813,0.23438 -0.33593,0 -0.57812,-0.24219 -0.23438,-0.24219 -0.23438,-0.58594 0,-0.32812 0.24219,-0.5625 0.24219,-0.24219 0.57813,-0.24219 z"
           style="letter-spacing:0.2px;stroke-width:0.75590551;stroke-miterlimit:4;stroke-dasharray:none"
           id="path65"
           inkscape:connector-curvature="0" />
        <path
           d="m 225.25508,180.73438 q 0.4375,-0.53906 0.73437,-0.71093 0.29688,-0.17188 0.78125,-0.17188 0.375,0 0.64063,0.10938 0.27343,0.10937 0.27343,0.27343 0,0.0703 -0.10937,0.28125 l -0.14844,0.27344 q -0.0937,0.17969 -0.14844,0.23438 -0.0547,0.0547 -0.14843,0.0547 -0.0625,0 -0.17188,-0.0625 -0.13281,-0.0781 -0.36719,-0.0781 -0.33593,0 -0.63281,0.17187 -0.29687,0.16407 -0.44531,0.42969 -0.25781,0.47656 -0.25781,1.625 v 3.07813 q 0,0.28125 -0.0703,0.35156 -0.0703,0.0703 -0.34375,0.0703 h -0.30468 q -0.28125,0 -0.35157,-0.0703 -0.0703,-0.0703 -0.0703,-0.35156 v -5.80469 q 0,-0.28125 0.0703,-0.35156 0.0703,-0.0703 0.35157,-0.0703 h 0.30468 q 0.27344,0 0.34375,0.0703 0.0703,0.0703 0.0703,0.35156 z"
           style="letter-spacing:0.2px;stroke-width:0.75590551;stroke-miterlimit:4;stroke-dasharray:none"
           id="path67"
           inkscape:connector-curvature="0" />
        <path
           d="m 231.86133,179.8672 q 1.57031,0 2.60937,1.14062 0.89844,0.98438 0.89844,2.35156 0,1.59375 -1.16406,2.625 -0.98438,0.875 -2.36719,0.875 -0.95312,0 -1.78125,-0.48437 -0.84375,-0.5 -1.29687,-1.36719 -0.40625,-0.76562 -0.40625,-1.70312 0,-1.45313 1.09375,-2.49219 1,-0.94531 2.41406,-0.94531 z m -0.0312,1.03125 q -1.11719,0 -1.78906,0.85937 -0.52344,0.66406 -0.52344,1.65625 0,1.0625 0.69531,1.75781 0.65625,0.65625 1.64063,0.65625 1.14843,0 1.83593,-0.85156 0.51563,-0.64844 0.51563,-1.60937 0,-1.125 -0.70313,-1.8125 -0.66406,-0.65625 -1.67187,-0.65625 z"
           style="letter-spacing:0.2px;stroke-width:0.75590551;stroke-miterlimit:4;stroke-dasharray:none"
           id="path69"
           inkscape:connector-curvature="0" />
        <path
           d="m 238.45977,180.82032 q 0.3125,-0.38281 0.5625,-0.5625 0.55468,-0.39844 1.34375,-0.39844 0.60156,0 1.10937,0.25 0.51563,0.24219 0.78906,0.66407 0.375,0.57031 0.375,1.76562 v 3.70313 q 0,0.28125 -0.0703,0.35156 -0.0703,0.0703 -0.34375,0.0703 h -0.3125 q -0.27344,0 -0.34375,-0.0703 -0.0703,-0.0703 -0.0703,-0.35156 v -3.50782 q 0,-0.92968 -0.21875,-1.28906 -0.33594,-0.55469 -1.17188,-0.55469 -0.86718,0 -1.25781,0.58594 -0.39062,0.57813 -0.39062,1.86719 v 2.89844 q 0,0.28125 -0.0703,0.35156 -0.0703,0.0703 -0.34375,0.0703 h -0.30468 q -0.28125,0 -0.35157,-0.0703 -0.0703,-0.0703 -0.0703,-0.35156 v -5.80469 q 0,-0.28125 0.0703,-0.35156 0.0703,-0.0703 0.35157,-0.0703 h 0.30468 q 0.27344,0 0.34375,0.0703 0.0703,0.0703 0.0703,0.35156 z"
           style="letter-spacing:0.2px;stroke-width:0.75590551;stroke-miterlimit:4;stroke-dasharray:none"
           id="path71"
           inkscape:connector-curvature="0" />
        <path
           d="m 246.15977,180.72657 q 0.26562,-0.35937 0.49218,-0.51562 0.49219,-0.35938 1.14844,-0.35938 1.23438,0 1.82031,1.08594 0.63282,-1.08594 1.94532,-1.08594 0.5625,0 1.03906,0.24219 0.48437,0.24219 0.75,0.65625 0.36719,0.57812 0.36719,1.69531 v 3.79688 q 0,0.28125 -0.0703,0.35156 -0.0703,0.0703 -0.35156,0.0703 h -0.29687 q -0.28125,0 -0.35157,-0.0703 -0.0703,-0.0703 -0.0703,-0.35156 v -3.60938 q 0,-0.83594 -0.21875,-1.22656 -0.28906,-0.51563 -0.96875,-0.51563 -1.42969,0 -1.42969,2.08594 v 3.26563 q 0,0.28125 -0.0703,0.35156 -0.0703,0.0703 -0.35156,0.0703 h -0.29688 q -0.28125,0 -0.35156,-0.0703 -0.0703,-0.0703 -0.0703,-0.35156 v -3.52344 q 0,-1.82813 -1.22656,-1.82813 -0.36719,0 -0.70313,0.20313 -0.32812,0.19531 -0.48437,0.51562 -0.25,0.49219 -0.25,1.4375 v 3.19532 q 0,0.28125 -0.0703,0.35156 -0.0703,0.0703 -0.34375,0.0703 h -0.30468 q -0.28125,0 -0.35157,-0.0703 -0.0703,-0.0703 -0.0703,-0.35156 v -5.80469 q 0,-0.28125 0.0703,-0.35156 0.0703,-0.0703 0.35157,-0.0703 h 0.30468 q 0.27344,0 0.34375,0.0703 0.0703,0.0703 0.0703,0.35156 z"
           style="letter-spacing:0.2px;stroke-width:0.75590551;stroke-miterlimit:4;stroke-dasharray:none"
           id="path73"
           inkscape:connector-curvature="0" />
        <path
           d="m 256.8832,183.57813 q 0.0312,0.67969 0.28125,1.14844 0.28125,0.52344 0.76563,0.8125 0.48437,0.28906 1.0625,0.28906 1.17968,0 1.85937,-1.09375 0.13281,-0.21875 0.27344,-0.21875 0.0625,0 0.26562,0.11719 l 0.23438,0.13281 q 0.28125,0.15625 0.28125,0.29688 0,0.0859 -0.0937,0.22656 -1.03125,1.57031 -2.85938,1.57031 -1.59375,0 -2.53125,-1.15625 -0.74218,-0.92187 -0.74218,-2.32031 0,-1.61719 0.94531,-2.59375 0.89062,-0.92187 2.27344,-0.92187 1.39843,0 2.28125,0.95312 0.88281,0.95313 0.88281,2.46875 0,0.17188 -0.0859,0.23438 -0.0859,0.0547 -0.33594,0.0547 z m 3.97656,-0.96093 q -0.10937,-0.55469 -0.38281,-0.92969 -0.58594,-0.78906 -1.5625,-0.78906 -0.72656,0 -1.28125,0.48437 -0.54687,0.48438 -0.67969,1.23438 z"
           style="font-style:normal;font-variant:normal;font-weight:normal;font-stretch:normal;font-size:16px;line-height:0;font-family:'Futura Round';-inkscape-font-specification:'Futura Round';letter-spacing:1.46000004px;fill:#065075;fill-opacity:0.94901961;stroke-width:0.75590551;stroke-miterlimit:4;stroke-dasharray:none"
           id="path75"
           inkscape:connector-curvature="0" />
        <path
           d="m 266.4057,180.82032 q 0.3125,-0.38281 0.5625,-0.5625 0.55469,-0.39844 1.34375,-0.39844 0.60156,0 1.10938,0.25 0.51562,0.24219 0.78906,0.66407 0.375,0.57031 0.375,1.76562 v 3.70313 q 0,0.28125 -0.0703,0.35156 -0.0703,0.0703 -0.34375,0.0703 h -0.3125 q -0.27344,0 -0.34375,-0.0703 -0.0703,-0.0703 -0.0703,-0.35156 v -3.50782 q 0,-0.92968 -0.21875,-1.28906 -0.33593,-0.55469 -1.17187,-0.55469 -0.86719,0 -1.25781,0.58594 -0.39063,0.57813 -0.39063,1.86719 v 2.89844 q 0,0.28125 -0.0703,0.35156 -0.0703,0.0703 -0.34375,0.0703 h -0.30469 q -0.28125,0 -0.35156,-0.0703 -0.0703,-0.0703 -0.0703,-0.35156 v -5.80469 q 0,-0.28125 0.0703,-0.35156 0.0703,-0.0703 0.35156,-0.0703 h 0.30469 q 0.27344,0 0.34375,0.0703 0.0703,0.0703 0.0703,0.35156 z"
           style="font-style:normal;font-variant:normal;font-weight:normal;font-stretch:normal;font-size:16px;line-height:0;font-family:'Futura Round';-inkscape-font-specification:'Futura Round';letter-spacing:1.46000004px;fill:#065075;fill-opacity:0.94901961;stroke-width:0.75590551;stroke-miterlimit:4;stroke-dasharray:none"
           id="path77"
           inkscape:connector-curvature="0" />
        <path
           d="m 275.37351,181.07032 v 5.17188 q 0,0.28125 -0.0703,0.35156 -0.0703,0.0703 -0.35156,0.0703 h -0.30469 q -0.27344,0 -0.34375,-0.0703 -0.0703,-0.0703 -0.0703,-0.35156 v -5.17188 h -0.27344 q -0.28125,0 -0.35156,-0.0703 -0.0703,-0.0703 -0.0703,-0.35156 v -0.21094 q 0,-0.28125 0.0703,-0.35156 0.0703,-0.0703 0.35156,-0.0703 h 0.27344 v -1.96875 q 0,-0.28125 0.0703,-0.35156 0.0703,-0.0703 0.34375,-0.0703 h 0.30469 q 0.28125,0 0.35156,0.0703 0.0703,0.0703 0.0703,0.35156 v 1.96875 h 0.75 q 0.28125,0 0.35156,0.0703 0.0703,0.0703 0.0703,0.35156 v 0.21094 q 0,0.28125 -0.0703,0.35156 -0.0703,0.0703 -0.35156,0.0703 z"
           style="font-style:normal;font-variant:normal;font-weight:normal;font-stretch:normal;font-size:16px;line-height:0;font-family:'Futura Round';-inkscape-font-specification:'Futura Round';letter-spacing:1.46000004px;fill:#065075;fill-opacity:0.94901961;stroke-width:0.75590551;stroke-miterlimit:4;stroke-dasharray:none"
           id="path79"
           inkscape:connector-curvature="0" />
      </g>
      <path
         inkscape:label="degradado"
         inkscape:connector-curvature="0"
         id="path965"
         d="m 54.475819,51.126491 0.14174,-16.81994"
         style="fill:url(#radialGradient997);fill-opacity:1;fill-rule:nonzero;stroke:url(#radialGradient989);stroke-width:0.60799998;stroke-linecap:butt;stroke-linejoin:miter;stroke-miterlimit:4;stroke-dasharray:none;stroke-opacity:0.89411765" />
    </g>
  </g>
</svg>
