<?xml version="1.0" encoding="UTF-8"?>
<svg width="615px" height="170px" viewBox="0 0 615 170" version="1.1" xmlns="http://www.w3.org/2000/svg" xmlns:xlink="http://www.w3.org/1999/xlink">
    <!-- Generator: Sketch 62 (91390) - https://sketch.com -->
    <title>logo-grad</title>
    <desc>Created with Sketch.</desc>
    <defs>
        <linearGradient x1="100%" y1="46.7680653%" x2="0%" y2="53.2319347%" id="linearGradient-1">
            <stop stop-color="#95B6AF" offset="0%"></stop>
            <stop stop-color="#54877F" offset="53.0837651%"></stop>
            <stop stop-color="#548780" offset="61.684375%"></stop>
            <stop stop-color="#3E756E" offset="100%"></stop>
        </linearGradient>
    </defs>
    <g id="Layouts" stroke="none" stroke-width="1" fill="none" fill-rule="evenodd">
        <g id="logo-grad" transform="translate(0.000300, 0.000000)">
            <path d="M-0.0003,57.1943 L6.1657,57.1943 L6.1657,115.9373 C6.1657,123.7843 7.0617,128.9403 16.8157,128.9403 L16.8157,134.7713 C3.9227,134.7713 -0.0003,129.1663 -0.0003,117.5073 L-0.0003,57.1943 Z M57.8447,135.2193 C43.3837,135.2193 35.0867,126.2513 35.0867,110.5553 L35.0867,102.3733 C35.0867,86.4543 43.4937,77.8223 57.8447,77.8223 C72.1927,77.8223 80.6027,86.4543 80.6027,102.3733 L80.6027,110.5553 C80.6027,125.8023 72.8657,135.2193 57.8447,135.2193 L57.8447,135.2193 Z M74.4367,102.3733 C74.4367,90.1533 68.4937,83.5393 57.8447,83.5393 C47.0817,83.5393 41.2517,90.1533 41.2517,102.3733 L41.2517,110.5553 C41.2517,122.3273 46.5207,129.5023 57.8447,129.5023 C68.7187,129.5023 74.4367,122.3273 74.4367,110.5553 L74.4367,102.3733 Z M101.3367,78.4943 L107.5027,78.4943 L107.5027,86.1183 C110.4177,80.7363 115.5747,77.8223 123.9827,77.8223 C136.4267,77.8223 144.6097,85.5563 144.6097,101.3643 L144.6097,134.5473 L138.4437,134.5473 L138.4437,101.4753 C138.4437,88.6963 132.0547,83.6513 123.3107,83.6513 C112.7717,83.6513 107.5027,90.6013 107.5027,100.9163 L107.5027,134.5473 L101.3367,134.5473 L101.3367,78.4943 Z M187.4317,156.5193 C178.4617,156.5193 172.5207,153.6043 168.8207,147.4383 L173.6427,143.9643 C176.6687,148.7843 181.2657,150.8023 187.7677,150.8023 C199.0897,150.8023 204.1347,143.4033 204.1347,132.3043 L204.1347,127.7083 C200.9957,132.8653 195.6137,135.2193 187.2067,135.2193 C172.6337,135.2193 165.3467,125.8023 165.3467,110.4443 L165.3467,102.3733 C165.3467,86.4543 173.3057,77.8223 187.2067,77.8223 C195.6137,77.8223 200.9957,80.5123 204.1347,85.7823 L204.1347,78.4943 L210.2997,78.4943 L210.2997,132.3043 C210.2997,147.8873 201.8927,156.5193 187.4317,156.5193 L187.4317,156.5193 Z M204.1347,101.7003 C204.1347,90.7143 199.3137,83.5393 187.6547,83.5393 C177.0047,83.5393 171.5117,90.1533 171.5117,102.3733 L171.5117,110.4443 C171.5117,122.2153 176.7797,129.5023 187.6547,129.5023 C200.2107,129.5023 204.1347,121.5433 204.1347,110.5553 L204.1347,101.7003 Z M230.7037,134.5473 L246.1747,134.5473 L246.1747,57.1943 L230.7037,57.1943 L230.7037,134.5473 Z M294.6787,70.5253 L294.6787,134.5473 L279.2077,134.5473 L279.2077,70.5253 L258.2767,70.5253 L258.2767,57.1943 L279.2077,57.1943 L294.6787,57.1943 L316.3477,57.1943 L316.3477,70.5253 L294.6787,70.5253 Z M364.0287,109.7693 L364.0287,103.0433 C364.0287,86.2273 355.3957,77.4843 339.8127,77.4843 C324.4547,77.4843 315.5987,86.2273 315.5987,103.0433 L315.5987,109.7693 C315.5987,125.4643 323.5587,135.5533 339.8127,135.5533 C356.7417,135.5533 364.0287,125.1283 364.0287,109.7693 L364.0287,109.7693 Z M349.7907,109.3223 C349.7907,117.3923 347.6607,123.4473 339.8127,123.4473 C331.8537,123.4473 329.8367,117.3923 329.8367,109.3223 L329.8367,103.4923 C329.8367,94.5233 332.7507,89.5903 339.8127,89.5903 C346.8767,89.5903 349.7907,94.5233 349.7907,103.4923 L349.7907,109.3223 Z M403.5987,135.5533 C387.3447,135.5533 379.3837,125.4643 379.3837,109.7693 L379.3837,103.0433 C379.3837,86.2273 388.2397,77.4843 403.5987,77.4843 C419.1817,77.4843 427.8137,86.2273 427.8137,103.0433 L427.8137,109.7693 C427.8137,125.1283 420.5267,135.5533 403.5987,135.5533 L403.5987,135.5533 Z M413.5757,103.4923 C413.5757,94.5233 410.6617,89.5903 403.5987,89.5903 C396.5357,89.5903 393.6217,94.5233 393.6217,103.4923 L393.6217,109.3223 C393.6217,117.3923 395.6397,123.4473 403.5987,123.4473 C411.4457,123.4473 413.5757,117.3923 413.5757,109.3223 L413.5757,103.4923 Z M445.1877,57.1913 L459.5377,57.1913 L459.5377,113.3573 C459.5377,119.4123 461.3307,122.2133 467.3857,122.2133 L467.3857,134.5453 C452.2507,134.5453 445.1877,130.6223 445.1877,116.6093 L445.1877,57.1913 Z M526.2367,86.7883 C521.8647,79.6143 514.2417,77.4843 505.0497,77.4843 C491.0357,77.4843 483.4117,84.0973 483.4117,94.7483 C483.4117,106.0713 491.9327,111.0033 503.5927,112.9093 C510.6537,114.0303 513.1207,115.1513 513.1207,118.6263 C513.1207,121.5413 510.0947,123.2223 505.1607,123.2223 C498.2107,123.2223 495.4077,121.4283 493.1657,118.4023 L482.1797,126.2493 C486.9997,132.7513 493.9497,135.5533 505.3867,135.5533 C519.8467,135.5533 527.3577,128.9393 527.3577,118.1773 C527.3577,107.0803 520.4067,101.8103 506.6177,99.6803 C500.6777,98.7843 497.6497,97.5503 497.6497,94.1863 C497.6497,90.9353 501.0137,89.8143 504.7127,89.8143 C510.7667,89.8143 513.2317,91.3843 515.6987,94.2993 L526.2367,86.7883 Z M576.5987,85.2823 L535.7777,77.3613 L528.4897,37.1733 L531.3507,81.7893 L576.5987,85.2823 Z M558.7967,65.5023 L557.1157,56.6573 L548.2707,54.9753 L541.1087,62.1373 L541.1067,62.1373 L542.7897,70.9803 L551.6337,72.6643 L551.6337,72.6633 L558.7957,65.5013 L558.7967,65.5023 Z M567.1097,24.0213 L566.5827,23.7983 L555.5047,45.7423 C553.6677,40.7153 550.3117,29.3363 553.8657,20.9623 C558.5577,9.9073 575.3837,3.8713 575.3837,3.8713 C575.3837,3.8713 582.7327,20.1653 578.0417,31.2193 C574.4707,39.6363 563.8657,45.1433 559.0067,47.2933 L567.1097,24.0213 Z M589.5187,46.4283 L589.7417,46.9573 L567.7977,58.0353 C572.8247,59.8723 584.2037,63.2273 592.5777,59.6733 C603.6337,54.9823 609.6687,38.1573 609.6687,38.1573 C609.6687,38.1573 593.3747,30.8063 582.3197,35.4983 C573.9027,39.0703 568.3957,49.6733 566.2467,54.5333 L589.5187,46.4283 Z M538.2367,27.6323 L537.7967,27.7353 L540.9367,46.8633 C537.4317,44.5133 530.0047,38.8243 528.3777,31.8383 C526.2287,22.6153 534.1437,10.9523 534.1437,10.9523 C534.1437,10.9523 546.3967,17.9173 548.5457,27.1383 C550.1827,34.1613 545.9847,42.5963 543.8897,46.2223 L538.2367,27.6323 Z M585.9067,75.3023 L585.8057,75.7433 L566.6777,72.6033 C569.0257,76.1093 574.7157,83.5353 581.7017,85.1623 C590.9247,87.3103 602.5877,79.3963 602.5877,79.3963 C602.5877,79.3963 595.6227,67.1423 586.4007,64.9943 C579.3787,63.3573 570.9427,67.5543 567.3167,69.6513 L585.9067,75.3023 Z M593.5367,20.1343 L593.3687,19.9693 L585.8537,26.7183 C585.8997,24.5193 586.3127,19.6633 588.9227,16.9873 C592.3677,13.4543 599.7107,13.6543 599.7107,13.6543 C599.7107,13.6543 600.0947,20.9893 596.6477,24.5213 C594.0247,27.2113 589.1437,27.7373 586.9627,27.8353 L593.5367,20.1343 Z M549.3117,9.6473 L549.0767,9.6593 L548.8877,19.7573 C547.3117,18.2233 544.0397,14.6103 543.8627,10.8763 C543.6287,5.9473 548.7827,0.7133 548.7827,0.7133 C548.7827,0.7133 554.4087,5.4343 554.6437,10.3653 C554.8207,14.1173 551.8757,18.0463 550.4597,19.7083 L549.3117,9.6473 Z M603.8927,64.2273 L603.8807,64.4633 L593.7817,64.6533 C595.3157,66.2283 598.9307,69.5003 602.6637,69.6763 C607.5937,69.9113 612.8267,64.7563 612.8267,64.7563 C612.8267,64.7563 608.1037,59.1313 603.1747,58.8963 C599.4227,58.7183 595.4937,61.6643 593.8317,63.0803 L603.8927,64.2273 Z" id="Fill-1" fill="url(#linearGradient-1)"></path>
            <polygon id="Fill-4" fill="#555759" points="232.8278 160.0254 240.1358 160.0254 240.1358 152.7674 242.2588 152.7674 242.2588 169.8014 240.1358 169.8014 240.1358 161.9514 232.8278 161.9514 232.8278 169.8014 230.7038 169.8014 230.7038 152.7674 232.8278 152.7674"></polygon>
            <polygon id="Fill-6" fill="#555759" points="256.7233 152.7666 256.7233 154.6936 248.5773 154.6936 248.5773 160.0256 255.9843 160.0256 255.9843 161.9516 248.5773 161.9516 248.5773 167.8756 256.7233 167.8756 256.7233 169.8016 246.4533 169.8016 246.4533 152.7666"></polygon>
            <path d="M257.9567,169.8018 L263.8817,152.7668 L265.8567,152.7668 L271.7817,169.8018 L269.5357,169.8018 L268.2267,165.9018 L261.5117,165.9018 L260.2037,169.8018 L257.9567,169.8018 Z M262.1777,163.9758 L267.5597,163.9758 L264.8687,155.9758 L262.1777,163.9758 Z" id="Fill-8" fill="#555759"></path>
            <polygon id="Fill-10" fill="#555759" points="276.2497 167.876 284.3957 167.876 284.3957 169.803 274.1267 169.803 274.1267 152.768 276.2497 152.768"></polygon>
            <polygon id="Fill-12" fill="#555759" points="296.1716 152.7666 296.1716 154.6936 290.9866 154.6936 290.9866 169.8016 288.8636 169.8016 288.8636 154.6936 283.6796 154.6936 283.6796 152.7666"></polygon>
            <polygon id="Fill-14" fill="#555759" points="300.5153 160.0254 307.8243 160.0254 307.8243 152.7674 309.9473 152.7674 309.9473 169.8014 307.8243 169.8014 307.8243 161.9514 300.5153 161.9514 300.5153 169.8014 298.3923 169.8014 298.3923 152.7674 300.5153 152.7674"></polygon>
            <path d="M322.3141,160.1982 C321.2771,158.9392 320.5611,157.8282 320.5611,156.3962 C320.5611,154.0992 322.2901,152.5692 324.7341,152.5692 C327.8201,152.5692 328.8561,154.3462 328.8561,155.9032 C328.8561,157.8282 327.0051,159.0632 325.1531,160.3462 L329.6231,165.2092 C330.1661,164.1982 330.4131,163.0382 330.4131,161.8512 L332.3381,161.8512 C332.3381,163.5312 331.8931,165.2602 330.9801,166.6912 L333.8431,169.8022 L331.0541,169.8022 L329.6471,168.2712 C328.4361,169.3332 326.8071,170.0002 324.7101,170.0002 C321.0801,170.0002 319.3271,167.6292 319.3271,165.2092 C319.3271,162.8882 320.7341,161.3832 322.3141,160.1982 M328.3381,166.8402 L323.5231,161.5312 C322.2901,162.5172 321.3511,163.6542 321.3511,165.1842 C321.3511,166.9632 322.7101,168.0742 324.7101,168.0742 C326.2401,168.0742 327.4491,167.6052 328.3381,166.8402 M323.9681,159.0632 C325.4491,158.0752 326.7331,157.2112 326.7331,156.0502 C326.7331,155.3842 326.1161,154.4692 324.7341,154.4692 C323.5231,154.4692 322.6851,155.2362 322.6851,156.3962 C322.6851,157.4092 323.3761,158.3712 323.9681,159.0632" id="Fill-16" fill="#555759"></path>
            <polygon id="Fill-19" fill="#555759" points="352.8766 152.7666 352.8766 154.6936 344.7306 154.6936 344.7306 160.0256 352.1356 160.0256 352.1356 161.9516 344.7306 161.9516 344.7306 167.8756 352.8766 167.8756 352.8766 169.8016 342.6056 169.8016 342.6056 152.7666"></polygon>
            <polygon id="Fill-21" fill="#555759" points="367.5143 152.7666 367.5143 169.8016 365.4403 169.8016 358.0823 156.9146 358.0823 169.8016 355.9583 169.8016 355.9583 152.7666 357.9843 152.7666 365.3903 165.7786 365.3903 152.7666"></polygon>
            <polygon id="Fill-23" fill="#555759" points="372.2038 152.7666 376.9928 166.3456 381.8568 152.7666 384.2028 152.7666 378.0298 169.8016 376.0298 169.8016 369.8588 152.7666"></polygon>
            <polygon id="Fill-25" fill="#555759" points="386.793 169.802 388.917 169.802 388.917 152.767 386.793 152.767"></polygon>
            <path d="M403.0602,169.8018 L399.5052,162.6178 L395.4812,162.6178 L395.4812,169.8018 L393.3582,169.8018 L393.3582,152.7668 L398.7892,152.7668 C402.7152,152.7668 404.9872,154.3958 404.9872,157.7048 C404.9872,160.0998 403.8012,161.6048 401.6292,162.2468 L405.4312,169.8018 L403.0602,169.8018 Z M398.7892,160.6918 C401.6782,160.6918 402.8642,159.8028 402.8642,157.7048 C402.8642,155.5818 401.6782,154.6928 398.7892,154.6928 L395.4812,154.6928 L395.4812,160.6918 L398.7892,160.6918 Z" id="Fill-27" fill="#555759"></path>
            <path d="M413.5768,170 C409.7998,170 407.4048,167.728 407.4048,162.223 L407.4048,160.347 C407.4048,154.841 409.7998,152.568 413.5768,152.568 C417.3538,152.568 419.7498,154.841 419.7498,160.347 L419.7498,162.223 C419.7498,167.728 417.3538,170 413.5768,170 L413.5768,170 Z M409.5278,162.223 C409.5278,166.443 410.9598,168.073 413.5768,168.073 C416.1938,168.073 417.6258,166.443 417.6258,162.223 L417.6258,160.347 C417.6258,156.125 416.1938,154.496 413.5768,154.496 C410.9598,154.496 409.5278,156.125 409.5278,160.347 L409.5278,162.223 Z" id="Fill-28" fill="#555759"></path>
            <polygon id="Fill-29" fill="#555759" points="434.6354 152.7666 434.6354 169.8016 432.5614 169.8016 425.2044 156.9146 425.2044 169.8016 423.0804 169.8016 423.0804 152.7666 425.1064 152.7666 432.5124 165.7786 432.5124 152.7666"></polygon>
            <polygon id="Fill-30" fill="#555759" points="446.0134 163.3828 451.0994 152.7678 453.1984 152.7678 453.1984 169.8018 451.0754 169.8018 451.0754 157.3098 446.9274 166.2468 445.0264 166.2468 440.9524 157.3828 440.9524 169.8018 438.8284 169.8018 438.8284 152.7678 440.9034 152.7678"></polygon>
            <polygon id="Fill-31" fill="#555759" points="467.6647 152.7666 467.6647 154.6936 459.5187 154.6936 459.5187 160.0256 466.9237 160.0256 466.9237 161.9516 459.5187 161.9516 459.5187 167.8756 467.6647 167.8756 467.6647 169.8016 457.3937 169.8016 457.3937 152.7666"></polygon>
            <polygon id="Fill-32" fill="#555759" points="482.3024 152.7666 482.3024 169.8016 480.2284 169.8016 472.8704 156.9146 472.8704 169.8016 470.7464 169.8016 470.7464 152.7666 472.7734 152.7666 480.1794 165.7786 480.1794 152.7666"></polygon>
            <polygon id="Fill-33" fill="#555759" points="497.0143 152.7666 497.0143 154.6936 491.8303 154.6936 491.8303 169.8016 489.7063 169.8016 489.7063 154.6936 484.5233 154.6936 484.5233 152.7666"></polygon>
            <path d="M505.4059,169.8018 L505.4059,152.7668 L510.8379,152.7668 C514.6149,152.7668 517.0099,154.8908 517.0099,160.3958 L517.0099,162.1728 C517.0099,167.6788 514.6149,169.8018 510.8379,169.8018 L505.4059,169.8018 Z M514.8859,162.1728 L514.8859,160.3958 C514.8859,156.1738 513.4549,154.6928 510.8379,154.6928 L507.5289,154.6928 L507.5289,167.8758 L510.8379,167.8758 C513.4549,167.8758 514.8859,166.3948 514.8859,162.1728 L514.8859,162.1728 Z" id="Fill-34" fill="#555759"></path>
            <polygon id="Fill-35" fill="#555759" points="520.737 152.7666 524.613 160.1736 528.489 152.7666 530.982 152.7666 525.674 162.4946 525.674 169.8016 523.551 169.8016 523.551 162.4946 518.244 152.7666"></polygon>
            <polygon id="Fill-36" fill="#555759" points="545.1276 152.7666 545.1276 169.8016 543.0536 169.8016 535.6956 156.9146 535.6956 169.8016 533.5716 169.8016 533.5716 152.7666 535.5986 152.7666 543.0046 165.7786 543.0046 152.7666"></polygon>
            <path d="M547.4704,169.8018 L553.3964,152.7668 L555.3704,152.7668 L561.2964,169.8018 L559.0494,169.8018 L557.7414,165.9018 L551.0264,165.9018 L549.7164,169.8018 L547.4704,169.8018 Z M551.6934,163.9758 L557.0744,163.9758 L554.3834,155.9758 L551.6934,163.9758 Z" id="Fill-37" fill="#555759"></path>
            <polygon id="Fill-38" fill="#555759" points="570.8239 163.3828 575.9099 152.7678 578.0089 152.7678 578.0089 169.8018 575.8859 169.8018 575.8859 157.3098 571.7379 166.2468 569.8369 166.2468 565.7629 157.3828 565.7629 169.8018 563.6399 169.8018 563.6399 152.7678 565.7139 152.7678"></polygon>
            <polygon id="Fill-39" fill="#555759" points="582.451 169.802 584.575 169.802 584.575 152.767 582.451 152.767"></polygon>
            <path d="M598.3737,158.0742 C597.7807,155.4082 596.4247,154.4952 594.3247,154.4952 C591.7077,154.4952 590.2767,156.1242 590.2767,160.3462 L590.2767,162.2232 C590.2767,166.4432 591.7077,168.0742 594.3247,168.0742 C596.5467,168.0742 597.8077,166.9872 598.3737,164.4942 L600.4227,164.4942 C599.8807,168.3202 597.5597,169.9992 594.3247,169.9992 C590.5477,169.9992 588.1527,167.7272 588.1527,162.2232 L588.1527,160.3462 C588.1527,154.8422 590.5477,152.5682 594.3247,152.5682 C597.6837,152.5682 599.9047,154.3462 600.4477,158.0742 L598.3737,158.0742 Z" id="Fill-40" fill="#555759"></path>
            <path d="M612.1491,156.5449 C611.2351,155.3589 610.2491,154.4959 608.1001,154.4959 C606.1261,154.4959 604.7921,155.3839 604.7921,157.1619 C604.7921,159.1859 606.3231,159.8779 608.8161,160.3209 C612.1001,160.8889 614.0991,162.0739 614.0991,165.2339 C614.0991,167.4569 612.6191,169.9999 608.3721,169.9999 C605.6061,169.9999 603.5831,169.0619 602.2981,167.2099 L604.0511,165.9999 C605.1631,167.3089 606.1491,168.0729 608.3721,168.0729 C611.1631,168.0729 611.9761,166.7899 611.9761,165.3329 C611.9761,163.7289 611.1631,162.6419 607.9521,162.1489 C604.7431,161.6539 602.6701,160.1239 602.6701,157.1619 C602.6701,154.7179 604.2731,152.5679 608.1741,152.5679 C610.8891,152.5679 612.5931,153.4819 613.8021,155.3589 L612.1491,156.5449 Z" id="Fill-41" fill="#555759"></path>
        </g>
    </g>
</svg>