<?xml version="1.0" encoding="UTF-8" standalone="no"?>
<!-- Created with Inkscape (http://www.inkscape.org/) -->

<svg
   xmlns:dc="http://purl.org/dc/elements/1.1/"
   xmlns:cc="http://creativecommons.org/ns#"
   xmlns:rdf="http://www.w3.org/1999/02/22-rdf-syntax-ns#"
   xmlns:svg="http://www.w3.org/2000/svg"
   xmlns="http://www.w3.org/2000/svg"
   xmlns:xlink="http://www.w3.org/1999/xlink"
   xmlns:sodipodi="http://sodipodi.sourceforge.net/DTD/sodipodi-0.dtd"
   xmlns:inkscape="http://www.inkscape.org/namespaces/inkscape"
   width="250"
   height="174.73801"
   viewBox="0 0 66.145832 46.232766"
   version="1.1"
   id="svg8"
   inkscape:version="0.92.5 (2060ec1f9f, 2020-04-08)"
   sodipodi:docname="logo_vre_embeded_text.svg">
  <defs
     id="defs2">
    <linearGradient
       inkscape:collect="always"
       id="linearGradient940">
      <stop
         style="stop-color:#074f74;stop-opacity:1;"
         offset="0"
         id="stop936" />
      <stop
         style="stop-color:#074f74;stop-opacity:0;"
         offset="1"
         id="stop938" />
    </linearGradient>
    <marker
       inkscape:stockid="Arrow1Lstart"
       orient="auto"
       refY="0"
       refX="0"
       id="marker1752"
       style="overflow:visible"
       inkscape:isstock="true">
      <path
         id="path1750"
         d="M 0,0 5,-5 -12.5,0 5,5 Z"
         style="fill:#065075;fill-opacity:0.94901961;fill-rule:evenodd;stroke:none;stroke-width:1.00000003pt;stroke-opacity:1"
         transform="matrix(0.8,0,0,0.8,10,0)"
         inkscape:connector-curvature="0" />
    </marker>
    <marker
       inkscape:stockid="Arrow1Lstart"
       orient="auto"
       refY="0"
       refX="0"
       id="marker1724"
       style="overflow:visible"
       inkscape:isstock="true">
      <path
         id="path1722"
         d="M 0,0 5,-5 -12.5,0 5,5 Z"
         style="fill:#065075;fill-opacity:0.94901961;fill-rule:evenodd;stroke:none;stroke-width:1.00000003pt;stroke-opacity:1"
         transform="matrix(0.8,0,0,0.8,10,0)"
         inkscape:connector-curvature="0" />
    </marker>
    <marker
       inkscape:stockid="Arrow1Lstart"
       orient="auto"
       refY="0"
       refX="0"
       id="marker1702"
       style="overflow:visible"
       inkscape:isstock="true">
      <path
         id="path1700"
         d="M 0,0 5,-5 -12.5,0 5,5 Z"
         style="fill:#065075;fill-opacity:0.94901961;fill-rule:evenodd;stroke:none;stroke-width:1.00000003pt;stroke-opacity:1"
         transform="matrix(0.8,0,0,0.8,10,0)"
         inkscape:connector-curvature="0" />
    </marker>
    <marker
       inkscape:stockid="Arrow1Lstart"
       orient="auto"
       refY="0"
       refX="0"
       id="Arrow1Lstart"
       style="overflow:visible"
       inkscape:isstock="true">
      <path
         id="path1424"
         d="M 0,0 5,-5 -12.5,0 5,5 Z"
         style="fill:#065075;fill-opacity:0.94901961;fill-rule:evenodd;stroke:none;stroke-width:1.00000003pt;stroke-opacity:1"
         transform="matrix(0.8,0,0,0.8,10,0)"
         inkscape:connector-curvature="0" />
    </marker>
    <linearGradient
       inkscape:collect="always"
       id="linearGradient987">
      <stop
         style="stop-color:#074f74;stop-opacity:1;"
         offset="0"
         id="stop983" />
      <stop
         style="stop-color:#074f74;stop-opacity:0;"
         offset="1"
         id="stop985" />
    </linearGradient>
    <radialGradient
       inkscape:collect="always"
       xlink:href="#linearGradient987"
       id="radialGradient989"
       cx="54.546688"
       cy="42.716522"
       fx="54.546688"
       fy="42.716522"
       r="0.37506971"
       gradientTransform="matrix(1,0,0,22.429253,0,-915.38313)"
       gradientUnits="userSpaceOnUse" />
    <radialGradient
       inkscape:collect="always"
       xlink:href="#linearGradient987"
       id="radialGradient997"
       cx="54.546688"
       cy="42.716522"
       fx="54.546688"
       fy="42.716522"
       r="0.37485921"
       gradientTransform="matrix(1,0,0,22.441844,0,-915.92099)"
       gradientUnits="userSpaceOnUse" />
    <radialGradient
       inkscape:collect="always"
       xlink:href="#linearGradient940"
       id="radialGradient942"
       cx="42.534489"
       cy="42.71777"
       fx="42.534489"
       fy="42.71777"
       r="0.36392012"
       gradientTransform="matrix(0.12124057,-31.345386,1.2475092,0.00482524,-3.9278553,1375.8002)"
       gradientUnits="userSpaceOnUse" />
  </defs>
  <sodipodi:namedview
     id="base"
     pagecolor="#ffffff"
     bordercolor="#666666"
     borderopacity="1.0"
     inkscape:pageopacity="0.0"
     inkscape:pageshadow="2"
     inkscape:zoom="4.1121711"
     inkscape:cx="137.26413"
     inkscape:cy="83.625331"
     inkscape:document-units="mm"
     inkscape:current-layer="g1996"
     showgrid="false"
     showguides="true"
     inkscape:guide-bbox="true"
     inkscape:snap-global="false"
     inkscape:window-width="1848"
     inkscape:window-height="1009"
     inkscape:window-x="72"
     inkscape:window-y="34"
     inkscape:window-maximized="1"
     units="px" />
  <metadata
     id="metadata5">
    <rdf:RDF>
      <cc:Work
         rdf:about="">
        <dc:format>image/svg+xml</dc:format>
        <dc:type
           rdf:resource="http://purl.org/dc/dcmitype/StillImage" />
        <dc:title></dc:title>
      </cc:Work>
    </rdf:RDF>
  </metadata>
  <g
     inkscape:label="Capa 1"
     inkscape:groupmode="layer"
     id="layer1"
     transform="translate(0,-250.7672)">
    <g
       id="g1996"
       inkscape:label="logo_vre"
       transform="matrix(2.7478557,0,0,2.7478557,-148.85637,156.50475)"
       style="display:inline">
      <g
         aria-label="Virtual
Research
Environment"
         style="font-style:normal;font-variant:normal;font-weight:normal;font-stretch:normal;font-size:1.28382933px;line-height:1.25;font-family:'Futura Round';-inkscape-font-specification:'Futura Round';letter-spacing:0px;word-spacing:0px;display:inline;fill:#055075;fill-opacity:0.94901961;stroke:none;stroke-width:0.0962872"
         id="text921"
         inkscape:label="virtual_research_environment_poppins">
        <path
           d="m 59.034889,37.327391 -0.871206,2.319879 h -0.440611 l -0.874544,-2.319879 h 0.40723 l 0.687619,1.929338 0.690957,-1.929338 z"
           style="font-style:normal;font-variant:normal;font-weight:500;font-stretch:normal;font-size:3.33795619px;line-height:1.29999995;font-family:Poppins;-inkscape-font-specification:'Poppins Medium';fill:#055075;fill-opacity:0.94901961;stroke-width:0.0962872"
           id="path935"
           inkscape:connector-curvature="0" />
        <path
           d="m 59.545591,37.564386 q -0.103477,0 -0.173574,-0.0701 -0.0701,-0.0701 -0.0701,-0.173573 0,-0.103477 0.0701,-0.173574 0.0701,-0.0701 0.173574,-0.0701 0.100138,0 0.170236,0.0701 0.0701,0.0701 0.0701,0.173574 0,0.103476 -0.0701,0.173573 -0.0701,0.0701 -0.170236,0.0701 z m 0.186925,0.24367 v 1.839214 h -0.380527 v -1.839214 z"
           style="font-style:normal;font-variant:normal;font-weight:500;font-stretch:normal;font-size:3.33795619px;line-height:1.29999995;font-family:Poppins;-inkscape-font-specification:'Poppins Medium';fill:#055075;fill-opacity:0.94901961;stroke-width:0.0962872"
           id="path937"
           inkscape:connector-curvature="0" />
        <path
           d="m 60.613737,38.075093 q 0.08345,-0.140194 0.220305,-0.216967 0.140194,-0.08011 0.330457,-0.08011 v 0.393879 h -0.0968 q -0.223643,0 -0.340472,0.11349 -0.11349,0.113491 -0.11349,0.393879 V 39.64727 H 60.23321 v -1.839214 h 0.380527 z"
           style="font-style:normal;font-variant:normal;font-weight:500;font-stretch:normal;font-size:3.33795619px;line-height:1.29999995;font-family:Poppins;-inkscape-font-specification:'Poppins Medium';fill:#055075;fill-opacity:0.94901961;stroke-width:0.0962872"
           id="path939"
           inkscape:connector-curvature="0" />
        <path
           d="m 61.958929,38.118486 v 1.018077 q 0,0.103477 0.04673,0.150208 0.05007,0.04339 0.166898,0.04339 h 0.233657 v 0.317106 h -0.300416 q -0.257023,0 -0.393879,-0.120166 -0.136856,-0.120167 -0.136856,-0.390541 v -1.018077 h -0.216967 v -0.31043 h 0.216967 v -0.4573 h 0.383865 v 0.4573 h 0.447286 v 0.31043 z"
           style="font-style:normal;font-variant:normal;font-weight:500;font-stretch:normal;font-size:3.33795619px;line-height:1.29999995;font-family:Poppins;-inkscape-font-specification:'Poppins Medium';fill:#055075;fill-opacity:0.94901961;stroke-width:0.0962872"
           id="path941"
           inkscape:connector-curvature="0" />
        <path
           d="m 64.42234,37.808056 v 1.839214 h -0.380527 v -0.216967 q -0.09013,0.113491 -0.236995,0.18025 -0.143532,0.06342 -0.307092,0.06342 -0.216967,0 -0.390541,-0.09013 -0.170235,-0.09013 -0.270374,-0.267036 -0.0968,-0.176912 -0.0968,-0.427259 V 37.80805 H 63.1172 v 1.024753 q 0,0.247009 0.123505,0.380527 0.123504,0.13018 0.337133,0.13018 0.21363,0 0.337134,-0.13018 0.126842,-0.133518 0.126842,-0.380527 V 37.80805 Z"
           style="font-style:normal;font-variant:normal;font-weight:500;font-stretch:normal;font-size:3.33795619px;line-height:1.29999995;font-family:Poppins;-inkscape-font-specification:'Poppins Medium';fill:#055075;fill-opacity:0.94901961;stroke-width:0.0962872"
           id="path943"
           inkscape:connector-curvature="0" />
        <path
           d="m 64.796185,38.719318 q 0,-0.27705 0.113491,-0.490679 0.116828,-0.213629 0.313768,-0.330458 0.200277,-0.120166 0.44061,-0.120166 0.216967,0 0.377189,0.08679 0.16356,0.08345 0.26036,0.210291 v -0.267037 h 0.383865 v 1.839214 h -0.383865 v -0.273712 q -0.0968,0.13018 -0.263698,0.216967 -0.166898,0.08679 -0.380527,0.08679 -0.236995,0 -0.433934,-0.120167 -0.19694,-0.123504 -0.313768,-0.340471 -0.113491,-0.220305 -0.113491,-0.497356 z m 1.505418,0.0067 q 0,-0.190263 -0.08011,-0.330457 -0.07677,-0.140195 -0.203616,-0.21363 -0.126842,-0.07344 -0.273712,-0.07344 -0.14687,0 -0.273713,0.07344 -0.126842,0.0701 -0.206953,0.210292 -0.07677,0.136856 -0.07677,0.327119 0,0.190264 0.07677,0.333796 0.08011,0.143532 0.206953,0.220305 0.130181,0.07344 0.273713,0.07344 0.14687,0 0.273712,-0.07344 0.126843,-0.07343 0.203616,-0.213629 0.08011,-0.143532 0.08011,-0.333796 z"
           style="font-style:normal;font-variant:normal;font-weight:500;font-stretch:normal;font-size:3.33795619px;line-height:1.29999995;font-family:Poppins;-inkscape-font-specification:'Poppins Medium';fill:#055075;fill-opacity:0.94901961;stroke-width:0.0962872"
           id="path945"
           inkscape:connector-curvature="0" />
        <path
           d="M 67.566688,37.177183 V 39.64727 H 67.186161 V 37.177183 Z"
           style="font-style:normal;font-variant:normal;font-weight:500;font-stretch:normal;font-size:3.33795619px;line-height:1.29999995;font-family:Poppins;-inkscape-font-specification:'Poppins Medium';fill:#055075;fill-opacity:0.94901961;stroke-width:0.0962872"
           id="path947"
           inkscape:connector-curvature="0" />
        <path
           d="M 58.240456,43.986613 57.706383,43.058661 H 57.41598 v 0.927952 h -0.380527 v -2.319879 h 0.80111 q 0.267036,0 0.450624,0.09346 0.186925,0.09346 0.27705,0.250347 0.09346,0.156884 0.09346,0.350485 0,0.226981 -0.133518,0.413907 -0.13018,0.183588 -0.403893,0.250347 l 0.574129,0.961331 z M 57.41598,42.754907 h 0.420583 q 0.213629,0 0.320444,-0.106814 0.110152,-0.106815 0.110152,-0.287065 0,-0.180249 -0.106814,-0.280388 -0.106815,-0.103477 -0.323782,-0.103477 H 57.41598 Z"
           style="font-style:normal;font-variant:normal;font-weight:500;font-stretch:normal;font-size:3.33795619px;line-height:1.29999995;font-family:Poppins;-inkscape-font-specification:'Poppins Medium';fill:#055075;fill-opacity:0.94901961;stroke-width:0.0962872"
           id="path949"
           inkscape:connector-curvature="0" />
        <path
           d="m 60.830709,43.021944 q 0,0.103476 -0.01335,0.186925 h -1.40528 q 0.01669,0.220305 0.16356,0.353824 0.14687,0.133518 0.360499,0.133518 0.307092,0 0.433934,-0.257023 h 0.410569 q -0.08345,0.253685 -0.303754,0.417245 -0.216967,0.160222 -0.540749,0.160222 -0.263698,0 -0.47399,-0.116829 Q 59.255195,43.77966 59.135029,43.566031 59.0182,43.349063 59.0182,43.065337 q 0,-0.283726 0.113491,-0.497355 0.116828,-0.216967 0.323781,-0.333796 0.210292,-0.116828 0.480666,-0.116828 0.260361,0 0.463976,0.11349 0.203615,0.113491 0.317106,0.320444 0.11349,0.203615 0.113489,0.470652 z m -0.397216,-0.120167 q -0.0033,-0.210291 -0.150208,-0.337133 -0.14687,-0.126843 -0.363838,-0.126843 -0.196939,0 -0.337133,0.126843 -0.140194,0.123504 -0.166898,0.337133 z"
           style="font-style:normal;font-variant:normal;font-weight:500;font-stretch:normal;font-size:3.33795619px;line-height:1.29999995;font-family:Poppins;-inkscape-font-specification:'Poppins Medium';fill:#055075;fill-opacity:0.94901961;stroke-width:0.0962872"
           id="path951"
           inkscape:connector-curvature="0" />
        <path
           d="m 61.872147,44.016655 q -0.216967,0 -0.390541,-0.07677 -0.170235,-0.08011 -0.270374,-0.213629 -0.100139,-0.136857 -0.106815,-0.303755 h 0.393879 q 0.01001,0.116829 0.110153,0.19694 0.103476,0.07677 0.257022,0.07677 0.160222,0 0.247009,-0.06008 0.09013,-0.06342 0.09013,-0.160222 0,-0.103477 -0.100139,-0.153546 -0.0968,-0.05007 -0.31043,-0.110153 -0.206953,-0.05674 -0.337133,-0.110152 -0.130181,-0.05341 -0.226981,-0.16356 -0.09346,-0.110153 -0.09346,-0.290402 0,-0.14687 0.08679,-0.267037 0.08679,-0.123504 0.247009,-0.193601 0.163559,-0.0701 0.373851,-0.0701 0.313768,0 0.504031,0.160222 0.193602,0.156883 0.206953,0.430596 h -0.380527 q -0.01001,-0.123505 -0.100138,-0.19694 -0.09013,-0.07343 -0.243671,-0.07343 -0.150208,0 -0.230319,0.05675 -0.08011,0.05674 -0.08011,0.150208 0,0.07343 0.05341,0.123504 0.05341,0.05007 0.130181,0.08011 0.07677,0.0267 0.226981,0.0701 0.200277,0.05341 0.327119,0.110153 0.130181,0.05341 0.223643,0.160222 0.09346,0.106814 0.0968,0.283726 0,0.156884 -0.08679,0.280388 -0.08679,0.123505 -0.247009,0.193602 -0.156884,0.0701 -0.370513,0.0701 z"
           style="font-style:normal;font-variant:normal;font-weight:500;font-stretch:normal;font-size:3.33795619px;line-height:1.29999995;font-family:Poppins;-inkscape-font-specification:'Poppins Medium';fill:#055075;fill-opacity:0.94901961;stroke-width:0.0962872"
           id="path953"
           inkscape:connector-curvature="0" />
        <path
           d="m 64.672687,43.021944 q 0,0.103476 -0.01335,0.186925 h -1.40528 q 0.01669,0.220305 0.16356,0.353824 0.14687,0.133518 0.360499,0.133518 0.307092,0 0.433935,-0.257023 h 0.410568 q -0.08345,0.253685 -0.303754,0.417245 -0.216967,0.160222 -0.540749,0.160222 -0.263698,0 -0.47399,-0.116829 -0.206953,-0.120166 -0.327119,-0.333795 -0.116829,-0.216968 -0.116829,-0.500694 0,-0.283726 0.113491,-0.497355 0.116828,-0.216967 0.323782,-0.333796 0.210291,-0.116828 0.480665,-0.116828 0.260361,0 0.463976,0.11349 0.203615,0.113491 0.317106,0.320444 0.11349,0.203615 0.113489,0.470652 z m -0.397216,-0.120167 q -0.0033,-0.210291 -0.150208,-0.337133 -0.14687,-0.126843 -0.363838,-0.126843 -0.196939,0 -0.337133,0.126843 -0.140194,0.123504 -0.166898,0.337133 z"
           style="font-style:normal;font-variant:normal;font-weight:500;font-stretch:normal;font-size:3.33795619px;line-height:1.29999995;font-family:Poppins;-inkscape-font-specification:'Poppins Medium';fill:#055075;fill-opacity:0.94901961;stroke-width:0.0962872"
           id="path955"
           inkscape:connector-curvature="0" />
        <path
           d="m 64.919692,43.058661 q 0,-0.27705 0.11349,-0.490679 0.116829,-0.213629 0.313768,-0.330458 0.200278,-0.120166 0.44061,-0.120166 0.216968,0 0.377189,0.08679 0.16356,0.08345 0.260361,0.210292 v -0.267037 h 0.383865 v 1.839214 H 66.42511 v -0.273712 q -0.0968,0.13018 -0.263699,0.216967 -0.166897,0.08679 -0.380527,0.08679 -0.236994,0 -0.433934,-0.120167 -0.196939,-0.123504 -0.313768,-0.340471 -0.11349,-0.220305 -0.11349,-0.497356 z m 1.505418,0.0067 q 0,-0.190263 -0.08011,-0.330457 -0.07677,-0.140195 -0.203615,-0.21363 -0.126843,-0.07344 -0.273713,-0.07344 -0.14687,0 -0.273712,0.07344 -0.126842,0.0701 -0.206953,0.210292 -0.07677,0.136856 -0.07677,0.327119 0,0.190264 0.07677,0.333796 0.08011,0.143532 0.206953,0.220305 0.13018,0.07344 0.273712,0.07344 0.14687,0 0.273713,-0.07344 0.126842,-0.07343 0.203615,-0.213629 0.08011,-0.143532 0.08011,-0.333796 z"
           style="font-style:normal;font-variant:normal;font-weight:500;font-stretch:normal;font-size:3.33795619px;line-height:1.29999995;font-family:Poppins;-inkscape-font-specification:'Poppins Medium';fill:#055075;fill-opacity:0.94901961;stroke-width:0.0962872"
           id="path957"
           inkscape:connector-curvature="0" />
        <path
           d="m 67.690194,42.414436 q 0.08345,-0.140194 0.220305,-0.216967 0.140194,-0.08011 0.330458,-0.08011 v 0.393878 h -0.0968 q -0.223643,0 -0.340471,0.113491 -0.113491,0.11349 -0.113491,0.393879 v 0.968007 H 67.309668 V 42.1474 h 0.380527 z"
           style="font-style:normal;font-variant:normal;font-weight:500;font-stretch:normal;font-size:3.33795619px;line-height:1.29999995;font-family:Poppins;-inkscape-font-specification:'Poppins Medium';fill:#055075;fill-opacity:0.94901961;stroke-width:0.0962872"
           id="path959"
           inkscape:connector-curvature="0" />
        <path
           d="m 68.464596,43.065337 q 0,-0.283726 0.11349,-0.497355 0.116829,-0.216967 0.320444,-0.333796 0.203615,-0.116828 0.467314,-0.116828 0.333795,0 0.550762,0.160222 0.220306,0.156883 0.297079,0.450624 h -0.410569 q -0.05007,-0.136857 -0.160222,-0.21363 -0.110152,-0.07677 -0.27705,-0.07677 -0.233657,0 -0.373851,0.166898 -0.136857,0.16356 -0.136857,0.460638 0,0.297078 0.136857,0.463976 0.140194,0.166898 0.373851,0.166898 0.330457,0 0.437272,-0.290402 h 0.410569 q -0.08011,0.280388 -0.300416,0.447286 -0.220306,0.16356 -0.547425,0.16356 -0.263699,0 -0.467314,-0.116829 -0.203615,-0.120166 -0.320444,-0.333795 -0.11349,-0.216968 -0.11349,-0.500694 z"
           style="font-style:normal;font-variant:normal;font-weight:500;font-stretch:normal;font-size:3.33795619px;line-height:1.29999995;font-family:Poppins;-inkscape-font-specification:'Poppins Medium';fill:#055075;fill-opacity:0.94901961;stroke-width:0.0962872"
           id="path961"
           inkscape:connector-curvature="0" />
        <path
           d="m 71.545524,42.117358 q 0.210291,0 0.373851,0.09012 0.166898,0.09013 0.260361,0.267037 0.0968,0.176912 0.0968,0.427258 v 1.084836 h -0.377189 v -1.02809 q 0,-0.247009 -0.123504,-0.377189 -0.123505,-0.133519 -0.337134,-0.133519 -0.213629,0 -0.340471,0.133519 -0.123505,0.13018 -0.123505,0.377189 v 1.02809 h -0.380527 v -2.470087 h 0.380527 v 0.844502 q 0.0968,-0.116828 0.243671,-0.180249 0.150208,-0.06342 0.32712,-0.06342 z"
           style="font-style:normal;font-variant:normal;font-weight:500;font-stretch:normal;font-size:3.33795619px;line-height:1.29999995;font-family:Poppins;-inkscape-font-specification:'Poppins Medium';fill:#055075;fill-opacity:0.94901961;stroke-width:0.0962872"
           id="path963"
           inkscape:connector-curvature="0" />
        <path
           d="m 57.41598,46.313168 v 0.680943 h 0.80111 v 0.31043 h -0.80111 v 0.710985 h 0.901249 v 0.31043 h -1.281776 v -2.323218 h 1.281776 v 0.31043 z"
           style="font-style:normal;font-variant:normal;font-weight:500;font-stretch:normal;font-size:3.33795619px;line-height:1.29999995;font-family:Poppins;-inkscape-font-specification:'Poppins Medium';fill:#055075;fill-opacity:0.94901961;stroke-width:0.0962872"
           id="path966"
           inkscape:connector-curvature="0" />
        <path
           d="m 59.712488,46.456701 q 0.216968,0 0.387203,0.09012 0.173574,0.09013 0.270375,0.267037 0.0968,0.176912 0.0968,0.427258 v 1.084836 h -0.377189 v -1.028091 q 0,-0.247008 -0.123505,-0.377189 -0.123504,-0.133518 -0.337133,-0.133518 -0.21363,0 -0.340472,0.133518 -0.123504,0.130181 -0.123504,0.377189 v 1.028091 h -0.380527 v -1.839214 h 0.380527 v 0.210291 q 0.09346,-0.11349 0.236995,-0.176911 0.14687,-0.06342 0.310429,-0.06342 z"
           style="font-style:normal;font-variant:normal;font-weight:500;font-stretch:normal;font-size:3.33795619px;line-height:1.29999995;font-family:Poppins;-inkscape-font-specification:'Poppins Medium';fill:#055075;fill-opacity:0.94901961;stroke-width:0.0962872"
           id="path968"
           inkscape:connector-curvature="0" />
        <path
           d="m 61.661849,47.985484 0.520721,-1.498742 h 0.403893 l -0.700971,1.839214 H 61.43153 l -0.697633,-1.839214 h 0.407231 z"
           style="font-style:normal;font-variant:normal;font-weight:500;font-stretch:normal;font-size:3.33795619px;line-height:1.29999995;font-family:Poppins;-inkscape-font-specification:'Poppins Medium';fill:#055075;fill-opacity:0.94901961;stroke-width:0.0962872"
           id="path970"
           inkscape:connector-curvature="0" />
        <path
           d="m 63.067123,46.243071 q -0.103477,0 -0.173574,-0.0701 -0.0701,-0.0701 -0.0701,-0.173573 0,-0.103477 0.0701,-0.173574 0.0701,-0.0701 0.173574,-0.0701 0.100139,0 0.170236,0.0701 0.0701,0.0701 0.0701,0.173574 0,0.103476 -0.0701,0.173573 -0.0701,0.0701 -0.170236,0.0701 z m 0.186925,0.243671 v 1.839214 h -0.380527 v -1.839214 z"
           style="font-style:normal;font-variant:normal;font-weight:500;font-stretch:normal;font-size:3.33795619px;line-height:1.29999995;font-family:Poppins;-inkscape-font-specification:'Poppins Medium';fill:#055075;fill-opacity:0.94901961;stroke-width:0.0962872"
           id="path972"
           inkscape:connector-curvature="0" />
        <path
           d="m 64.135269,46.753779 q 0.08345,-0.140195 0.220305,-0.216968 0.140194,-0.08011 0.330457,-0.08011 v 0.393878 h -0.0968 q -0.223643,0 -0.340472,0.113491 -0.11349,0.11349 -0.11349,0.393879 v 0.968007 h -0.380527 v -1.839214 h 0.380527 z"
           style="font-style:normal;font-variant:normal;font-weight:500;font-stretch:normal;font-size:3.33795619px;line-height:1.29999995;font-family:Poppins;-inkscape-font-specification:'Poppins Medium';fill:#055075;fill-opacity:0.94901961;stroke-width:0.0962872"
           id="path974"
           inkscape:connector-curvature="0" />
        <path
           d="m 65.834284,48.355998 q -0.26036,0 -0.470651,-0.116829 -0.210292,-0.120166 -0.330458,-0.333796 -0.120166,-0.216967 -0.120166,-0.500693 0,-0.280388 0.123504,-0.497355 0.123504,-0.216968 0.337133,-0.333796 0.21363,-0.116828 0.477328,-0.116828 0.263699,0 0.477328,0.116828 0.213629,0.116828 0.337134,0.333796 0.123504,0.216967 0.123504,0.497355 0,0.280388 -0.126842,0.497356 -0.126843,0.216967 -0.347148,0.337133 -0.216967,0.116829 -0.480666,0.116829 z m 0,-0.330458 q 0.146871,0 0.273713,-0.0701 0.13018,-0.0701 0.210291,-0.210291 0.08011,-0.140195 0.08011,-0.340472 0,-0.200277 -0.07677,-0.337134 -0.07677,-0.140194 -0.203615,-0.210291 -0.126843,-0.0701 -0.273713,-0.0701 -0.14687,0 -0.273712,0.0701 -0.123504,0.0701 -0.19694,0.210291 -0.07343,0.136857 -0.07343,0.337134 0,0.297078 0.150208,0.460638 0.153546,0.160222 0.383865,0.160222 z"
           style="font-style:normal;font-variant:normal;font-weight:500;font-stretch:normal;font-size:3.33795619px;line-height:1.29999995;font-family:Poppins;-inkscape-font-specification:'Poppins Medium';fill:#055075;fill-opacity:0.94901961;stroke-width:0.0962872"
           id="path976"
           inkscape:connector-curvature="0" />
        <path
           d="m 68.094076,46.456701 q 0.216967,0 0.387203,0.09012 0.173573,0.09013 0.270374,0.267037 0.0968,0.176912 0.0968,0.427258 v 1.084836 h -0.377189 v -1.028091 q 0,-0.247008 -0.123505,-0.377189 -0.123504,-0.133518 -0.337133,-0.133518 -0.213629,0 -0.340472,0.133518 -0.123504,0.130181 -0.123504,0.377189 v 1.028091 h -0.380527 v -1.839214 h 0.380527 v 0.210291 q 0.09346,-0.11349 0.236995,-0.176911 0.14687,-0.06342 0.31043,-0.06342 z"
           style="font-style:normal;font-variant:normal;font-weight:500;font-stretch:normal;font-size:3.33795619px;line-height:1.29999995;font-family:Poppins;-inkscape-font-specification:'Poppins Medium';fill:#055075;fill-opacity:0.94901961;stroke-width:0.0962872"
           id="path978"
           inkscape:connector-curvature="0" />
        <path
           d="m 71.558869,46.456701 q 0.216967,0 0.387203,0.09012 0.173574,0.09013 0.270374,0.267037 0.100139,0.176912 0.100139,0.427258 v 1.084836 h -0.377189 v -1.028091 q 0,-0.247008 -0.123504,-0.377189 -0.123505,-0.133518 -0.337134,-0.133518 -0.213629,0 -0.340471,0.133518 -0.123505,0.130181 -0.123505,0.377189 v 1.028091 h -0.377189 v -1.028091 q 0,-0.247008 -0.123504,-0.377189 -0.123505,-0.133518 -0.337134,-0.133518 -0.213629,0 -0.340471,0.133518 -0.123505,0.130181 -0.123505,0.377189 v 1.028091 h -0.380527 v -1.839214 h 0.380527 v 0.210291 q 0.09346,-0.11349 0.236995,-0.176911 0.143532,-0.06342 0.307092,-0.06342 0.220305,0 0.393879,0.09346 0.173574,0.09346 0.267037,0.270375 0.08345,-0.166898 0.26036,-0.263699 0.176912,-0.100138 0.380527,-0.100138 z"
           style="font-style:normal;font-variant:normal;font-weight:500;font-stretch:normal;font-size:3.33795619px;line-height:1.29999995;font-family:Poppins;-inkscape-font-specification:'Poppins Medium';fill:#055075;fill-opacity:0.94901961;stroke-width:0.0962872"
           id="path980"
           inkscape:connector-curvature="0" />
        <path
           d="m 74.486255,47.361287 q 0,0.103476 -0.01335,0.186925 h -1.405279 q 0.01669,0.220305 0.16356,0.353824 0.14687,0.133518 0.360499,0.133518 0.307092,0 0.433934,-0.257023 h 0.410569 q -0.08345,0.253685 -0.303754,0.417245 -0.216967,0.160222 -0.540749,0.160222 -0.263699,0 -0.47399,-0.116829 -0.206953,-0.120166 -0.32712,-0.333796 -0.116828,-0.216967 -0.116828,-0.500693 0,-0.283726 0.11349,-0.497355 0.116829,-0.216968 0.323782,-0.333796 0.210291,-0.116828 0.480666,-0.116828 0.26036,0 0.463976,0.11349 0.203615,0.113491 0.317106,0.320444 0.11349,0.203615 0.11349,0.470652 z M 74.089038,47.24112 q -0.0033,-0.210291 -0.150208,-0.337133 -0.14687,-0.126843 -0.363837,-0.126843 -0.196939,0 -0.337134,0.126843 -0.140194,0.123504 -0.166897,0.337133 z"
           style="font-style:normal;font-variant:normal;font-weight:500;font-stretch:normal;font-size:3.33795619px;line-height:1.29999995;font-family:Poppins;-inkscape-font-specification:'Poppins Medium';fill:#055075;fill-opacity:0.94901961;stroke-width:0.0962872"
           id="path982"
           inkscape:connector-curvature="0" />
        <path
           d="m 75.788053,46.456701 q 0.216967,0 0.387203,0.09012 0.173574,0.09013 0.270374,0.267037 0.0968,0.176912 0.0968,0.427258 v 1.084836 h -0.377189 v -1.028091 q 0,-0.247008 -0.123504,-0.377189 -0.123505,-0.133518 -0.337134,-0.133518 -0.213629,0 -0.340471,0.133518 -0.123505,0.130181 -0.123505,0.377189 v 1.028091 H 74.8601 v -1.839214 h 0.380527 v 0.210291 q 0.09346,-0.11349 0.236995,-0.176911 0.14687,-0.06342 0.31043,-0.06342 z"
           style="font-style:normal;font-variant:normal;font-weight:500;font-stretch:normal;font-size:3.33795619px;line-height:1.29999995;font-family:Poppins;-inkscape-font-specification:'Poppins Medium';fill:#055075;fill-opacity:0.94901961;stroke-width:0.0962872"
           id="path984"
           inkscape:connector-curvature="0" />
        <path
           d="m 77.470378,46.797172 v 1.018077 q 0,0.103476 0.04673,0.150208 0.05007,0.04339 0.166898,0.04339 h 0.233657 v 0.317106 h -0.300416 q -0.257023,0 -0.393879,-0.120166 -0.136856,-0.120167 -0.136856,-0.390541 v -1.018077 h -0.216967 v -0.31043 h 0.216967 v -0.4573 h 0.383865 v 0.4573 h 0.447286 v 0.31043 z"
           style="font-style:normal;font-variant:normal;font-weight:500;font-stretch:normal;font-size:3.33795619px;line-height:1.29999995;font-family:Poppins;-inkscape-font-specification:'Poppins Medium';fill:#055075;fill-opacity:0.94901961;stroke-width:0.0962872"
           id="path986"
           inkscape:connector-curvature="0" />
      </g>
      <g
         aria-label="Virtual Research Environment"
         transform="matrix(0.26458333,0,0,0.26458333,5.0743306,-0.74370379)"
         style="font-style:normal;font-variant:normal;font-weight:normal;font-stretch:normal;font-size:13.33333302px;line-height:1.25;font-family:'Futura Round';-inkscape-font-specification:'Futura Round';letter-spacing:0px;word-spacing:0px;display:none;fill:#065075;fill-opacity:0.94901961;stroke:none;stroke-width:0.75590551;stroke-miterlimit:4;stroke-dasharray:none"
         id="flowRoot91"
         inkscape:label="virtual_research_environment_futura_rounded">
        <path
           d="m 201.58008,150.79948 2.90625,-7.8125 q 0.0937,-0.23438 0.14844,-0.27344 0.0625,-0.0469 0.3125,-0.0469 h 0.42187 q 0.41406,0 0.41406,0.21875 0,0.0781 -0.0781,0.27343 l -3.84375,10.03907 q -0.125,0.3125 -0.28906,0.3125 -0.17969,0 -0.30469,-0.3125 l -3.82813,-10.03907 q -0.0781,-0.19531 -0.0781,-0.27343 0,-0.21875 0.41406,-0.21875 h 0.4375 q 0.25,0 0.30469,0.0469 0.0625,0.0391 0.15625,0.27344 z"
           style="font-style:normal;font-variant:normal;font-weight:normal;font-stretch:normal;font-size:16px;line-height:0;font-family:'Futura Round';-inkscape-font-specification:'Futura Round';letter-spacing:0.2px;fill:#065075;fill-opacity:0.94901961;stroke-width:0.75590551;stroke-miterlimit:4;stroke-dasharray:none"
           id="path29"
           inkscape:connector-curvature="0" />
        <path
           d="m 208.45195,147.10417 v 5.80468 q 0,0.28125 -0.0703,0.35157 -0.0703,0.0703 -0.34375,0.0703 h -0.30469 q -0.28125,0 -0.35156,-0.0703 -0.0703,-0.0703 -0.0703,-0.35157 v -5.80468 q 0,-0.28125 0.0703,-0.35157 0.0703,-0.0703 0.35156,-0.0703 h 0.30469 q 0.27344,0 0.34375,0.0703 0.0703,0.0703 0.0703,0.35157 z m -0.5625,-3.73438 q 0.33594,0 0.57032,0.24219 0.24218,0.23437 0.24218,0.57031 0,0.34375 -0.24218,0.58594 -0.23438,0.23437 -0.57813,0.23437 -0.33594,0 -0.57812,-0.24218 -0.23438,-0.24219 -0.23438,-0.58594 0,-0.32813 0.24219,-0.5625 0.24219,-0.24219 0.57812,-0.24219 z"
           style="font-style:normal;font-variant:normal;font-weight:normal;font-stretch:normal;font-size:16px;line-height:0;font-family:'Futura Round';-inkscape-font-specification:'Futura Round';letter-spacing:0.2px;fill:#065075;fill-opacity:0.94901961;stroke-width:0.75590551;stroke-miterlimit:4;stroke-dasharray:none"
           id="path31"
           inkscape:connector-curvature="0" />
        <path
           d="m 211.97227,147.40104 q 0.4375,-0.53906 0.73437,-0.71094 0.29688,-0.17187 0.78125,-0.17187 0.375,0 0.64063,0.10937 0.27343,0.10938 0.27343,0.27344 0,0.0703 -0.10937,0.28125 l -0.14844,0.27344 q -0.0937,0.17969 -0.14844,0.23437 -0.0547,0.0547 -0.14843,0.0547 -0.0625,0 -0.17188,-0.0625 -0.13281,-0.0781 -0.36719,-0.0781 -0.33593,0 -0.63281,0.17187 -0.29687,0.16406 -0.44531,0.42969 -0.25781,0.47656 -0.25781,1.625 v 3.07812 q 0,0.28125 -0.0703,0.35157 -0.0703,0.0703 -0.34375,0.0703 h -0.30468 q -0.28125,0 -0.35157,-0.0703 -0.0703,-0.0703 -0.0703,-0.35157 v -5.80468 q 0,-0.28125 0.0703,-0.35157 0.0703,-0.0703 0.35157,-0.0703 h 0.30468 q 0.27344,0 0.34375,0.0703 0.0703,0.0703 0.0703,0.35157 z"
           style="font-style:normal;font-variant:normal;font-weight:normal;font-stretch:normal;font-size:16px;line-height:0;font-family:'Futura Round';-inkscape-font-specification:'Futura Round';letter-spacing:0.2px;fill:#065075;fill-opacity:0.94901961;stroke-width:0.75590551;stroke-miterlimit:4;stroke-dasharray:none"
           id="path33"
           inkscape:connector-curvature="0" />
        <path
           d="m 217.3207,147.73698 v 5.17187 q 0,0.28125 -0.0703,0.35157 -0.0703,0.0703 -0.35156,0.0703 h -0.30469 q -0.27344,0 -0.34375,-0.0703 -0.0703,-0.0703 -0.0703,-0.35157 v -5.17187 h -0.27344 q -0.28125,0 -0.35156,-0.0703 -0.0703,-0.0703 -0.0703,-0.35157 v -0.21093 q 0,-0.28125 0.0703,-0.35157 0.0703,-0.0703 0.35156,-0.0703 h 0.27344 v -1.96875 q 0,-0.28125 0.0703,-0.35156 0.0703,-0.0703 0.34375,-0.0703 h 0.30469 q 0.28125,0 0.35156,0.0703 0.0703,0.0703 0.0703,0.35156 v 1.96875 h 0.75 q 0.28125,0 0.35157,0.0703 0.0703,0.0703 0.0703,0.35157 v 0.21093 q 0,0.28125 -0.0703,0.35157 -0.0703,0.0703 -0.35157,0.0703 z"
           style="font-style:normal;font-variant:normal;font-weight:normal;font-stretch:normal;font-size:16px;line-height:0;font-family:'Futura Round';-inkscape-font-specification:'Futura Round';letter-spacing:0.2px;fill:#065075;fill-opacity:0.94901961;stroke-width:0.75590551;stroke-miterlimit:4;stroke-dasharray:none"
           id="path35"
           inkscape:connector-curvature="0" />
        <path
           d="m 220.94258,147.10417 v 3.46093 q 0,0.85938 0.20312,1.24219 0.17188,0.32031 0.51563,0.50781 0.35156,0.17969 0.77343,0.17969 0.42969,0 0.77344,-0.17969 0.34375,-0.1875 0.51563,-0.50781 0.20312,-0.38281 0.20312,-1.24219 v -3.46093 q 0,-0.28125 0.0703,-0.35157 0.0703,-0.0703 0.34375,-0.0703 h 0.3125 q 0.27344,0 0.34375,0.0703 0.0703,0.0703 0.0703,0.35157 v 3.58593 q 0,0.73438 -0.14063,1.1875 -0.13281,0.44532 -0.46094,0.8125 -0.75,0.83594 -2.03125,0.83594 -1.28125,0 -2.03125,-0.83594 -0.32812,-0.36718 -0.46875,-0.8125 -0.13281,-0.45312 -0.13281,-1.1875 v -3.58593 q 0,-0.28125 0.0703,-0.35157 0.0703,-0.0703 0.35157,-0.0703 h 0.30468 q 0.27344,0 0.34375,0.0703 0.0703,0.0703 0.0703,0.35157 z"
           style="font-style:normal;font-variant:normal;font-weight:normal;font-stretch:normal;font-size:16px;line-height:0;font-family:'Futura Round';-inkscape-font-specification:'Futura Round';letter-spacing:0.2px;fill:#065075;fill-opacity:0.94901961;stroke-width:0.75590551;stroke-miterlimit:4;stroke-dasharray:none"
           id="path37"
           inkscape:connector-curvature="0" />
        <path
           d="m 232.50977,152.40885 q -0.92969,1.11719 -2.28907,1.11719 -1.47656,0 -2.41406,-1.13281 -0.78906,-0.95313 -0.78906,-2.39844 0,-1.67969 1.05469,-2.64844 0.89843,-0.82031 2.125,-0.82031 1.375,0 2.3125,1.10156 v -0.52343 q 0,-0.28125 0.0703,-0.35157 0.0703,-0.0703 0.35156,-0.0703 h 0.30469 q 0.28125,0 0.35156,0.0703 0.0703,0.0703 0.0703,0.35157 v 5.80468 q 0,0.28125 -0.0703,0.35157 -0.0703,0.0703 -0.35156,0.0703 h -0.30469 q -0.28125,0 -0.35156,-0.0703 -0.0703,-0.0703 -0.0703,-0.35157 z m -2.15625,-4.85156 q -0.95313,0 -1.59375,0.74219 -0.57813,0.67187 -0.57813,1.75 0,1.10156 0.70313,1.82031 0.60156,0.625 1.49218,0.625 1.05469,0 1.70313,-0.82812 0.50781,-0.64844 0.50781,-1.66407 0,-1.19531 -0.69531,-1.83593 -0.65625,-0.60938 -1.53906,-0.60938 z"
           style="font-style:normal;font-variant:normal;font-weight:normal;font-stretch:normal;font-size:16px;line-height:0;font-family:'Futura Round';-inkscape-font-specification:'Futura Round';letter-spacing:0.2px;fill:#065075;fill-opacity:0.94901961;stroke-width:0.75590551;stroke-miterlimit:4;stroke-dasharray:none"
           id="path39"
           inkscape:connector-curvature="0" />
        <path
           d="m 237.1707,142.08073 v 10.82812 q 0,0.28125 -0.0703,0.35157 -0.0703,0.0703 -0.34375,0.0703 h -0.30469 q -0.28125,0 -0.35156,-0.0703 -0.0703,-0.0703 -0.0703,-0.35157 v -10.82812 q 0,-0.28125 0.0703,-0.35156 0.0703,-0.0703 0.35156,-0.0703 h 0.30469 q 0.27344,0 0.34375,0.0703 0.0703,0.0703 0.0703,0.35156 z"
           style="font-style:normal;font-variant:normal;font-weight:normal;font-stretch:normal;font-size:16px;line-height:0;font-family:'Futura Round';-inkscape-font-specification:'Futura Round';letter-spacing:0.2px;fill:#065075;fill-opacity:0.94901961;stroke-width:0.75590551;stroke-miterlimit:4;stroke-dasharray:none"
           id="path41"
           inkscape:connector-curvature="0" />
        <path
           d="m 201.30664,165.22396 3.01563,4.24219 q 0.14062,0.20313 0.14062,0.30469 0,0.22656 -0.42187,0.22656 h -0.5 q -0.23438,0 -0.28907,-0.0234 -0.0469,-0.0312 -0.17968,-0.22656 l -3.04688,-4.42969 h -0.30469 v 4.25782 q 0,0.28125 -0.0703,0.35156 -0.0703,0.0703 -0.35156,0.0703 h -0.35156 q -0.28125,0 -0.35157,-0.0703 -0.0703,-0.0703 -0.0703,-0.35156 v -9.82813 q 0,-0.27344 0.0703,-0.34375 0.0703,-0.0703 0.35157,-0.0703 h 1.30468 q 1.125,0 1.76563,0.20312 1.03125,0.32813 1.53906,1.17969 0.42969,0.71094 0.42969,1.60938 0,1.5625 -1.15625,2.36718 -0.66406,0.46094 -1.52344,0.53125 z m -1.58594,-0.95312 h 0.74219 q 1.08594,0 1.65625,-0.42969 0.69531,-0.53125 0.69531,-1.51562 0,-1.04688 -0.77343,-1.53907 -0.55469,-0.34375 -1.60938,-0.34375 h -0.71094 z"
           style="font-style:normal;font-variant:normal;font-weight:normal;font-stretch:normal;font-size:16px;line-height:0;font-family:'Futura Round';-inkscape-font-specification:'Futura Round';letter-spacing:0.2px;fill:#065075;fill-opacity:0.94901961;stroke-width:0.75590551;stroke-miterlimit:4;stroke-dasharray:none"
           id="path43"
           inkscape:connector-curvature="0" />
        <path
           d="m 206.93633,166.91146 q 0.0312,0.67969 0.28125,1.14844 0.28125,0.52344 0.76562,0.8125 0.48438,0.28906 1.0625,0.28906 1.17969,0 1.85938,-1.09375 0.13281,-0.21875 0.27344,-0.21875 0.0625,0 0.26562,0.11719 l 0.23438,0.13281 q 0.28125,0.15625 0.28125,0.29688 0,0.0859 -0.0937,0.22656 -1.03125,1.57031 -2.85938,1.57031 -1.59375,0 -2.53125,-1.15625 -0.74219,-0.92187 -0.74219,-2.32031 0,-1.61719 0.94532,-2.59375 0.89062,-0.92187 2.27343,-0.92187 1.39844,0 2.28125,0.95312 0.88282,0.95313 0.88282,2.46875 0,0.17188 -0.0859,0.23438 -0.0859,0.0547 -0.33594,0.0547 z m 3.97656,-0.96093 q -0.10937,-0.55469 -0.38281,-0.92969 -0.58594,-0.78906 -1.5625,-0.78906 -0.72656,0 -1.28125,0.48437 -0.54688,0.48438 -0.67969,1.23438 z"
           style="font-style:normal;font-variant:normal;font-weight:normal;font-stretch:normal;font-size:16px;line-height:0;font-family:'Futura Round';-inkscape-font-specification:'Futura Round';letter-spacing:0.2px;fill:#065075;fill-opacity:0.94901961;stroke-width:0.75590551;stroke-miterlimit:4;stroke-dasharray:none"
           id="path45"
           inkscape:connector-curvature="0" />
        <path
           d="m 217.34727,164.59896 -0.21094,0.10938 q -0.20313,0.10937 -0.27344,0.10937 -0.0859,0 -0.19531,-0.14843 -0.32813,-0.4375 -0.8125,-0.4375 -0.32813,0 -0.5625,0.21875 -0.23438,0.21093 -0.23438,0.52343 0,0.28907 0.21875,0.48438 0.21875,0.19531 0.85157,0.46094 0.89843,0.375 1.26562,0.64062 0.73438,0.53125 0.73438,1.46094 0,0.97656 -0.71094,1.60156 -0.64844,0.57031 -1.5625,0.57031 -0.63281,0 -1.17969,-0.28906 -0.53906,-0.29687 -0.86719,-0.8125 -0.20312,-0.32812 -0.20312,-0.46094 0,-0.16406 0.30469,-0.29687 l 0.25,-0.10156 q 0.20312,-0.0859 0.27343,-0.0859 0.125,0 0.27344,0.28125 0.38281,0.73437 1.15625,0.73437 0.5625,0 0.86719,-0.375 0.23437,-0.29687 0.23437,-0.67187 0,-0.38281 -0.22656,-0.60938 -0.21875,-0.23437 -0.85156,-0.50781 -0.92188,-0.39062 -1.32813,-0.6875 -0.59375,-0.42969 -0.59375,-1.24219 0,-0.86718 0.625,-1.39062 0.57032,-0.47656 1.3125,-0.47656 0.51563,0 0.97657,0.25781 0.46875,0.25781 0.69531,0.66406 0.0547,0.10938 0.0547,0.17969 0,0.14844 -0.28125,0.29687 z"
           style="font-style:normal;font-variant:normal;font-weight:normal;font-stretch:normal;font-size:16px;line-height:0;font-family:'Futura Round';-inkscape-font-specification:'Futura Round';letter-spacing:0.2px;fill:#065075;fill-opacity:0.94901961;stroke-width:0.75590551;stroke-miterlimit:4;stroke-dasharray:none"
           id="path47"
           inkscape:connector-curvature="0" />
        <path
           d="m 220.64102,166.91146 q 0.0312,0.67969 0.28125,1.14844 0.28125,0.52344 0.76562,0.8125 0.48438,0.28906 1.0625,0.28906 1.17969,0 1.85938,-1.09375 0.13281,-0.21875 0.27343,-0.21875 0.0625,0 0.26563,0.11719 l 0.23437,0.13281 q 0.28125,0.15625 0.28125,0.29688 0,0.0859 -0.0937,0.22656 -1.03125,1.57031 -2.85937,1.57031 -1.59375,0 -2.53125,-1.15625 -0.74219,-0.92187 -0.74219,-2.32031 0,-1.61719 0.94531,-2.59375 0.89063,-0.92187 2.27344,-0.92187 1.39844,0 2.28125,0.95312 0.88281,0.95313 0.88281,2.46875 0,0.17188 -0.0859,0.23438 -0.0859,0.0547 -0.33594,0.0547 z m 3.97656,-0.96093 q -0.10938,-0.55469 -0.38281,-0.92969 -0.58594,-0.78906 -1.5625,-0.78906 -0.72657,0 -1.28125,0.48437 -0.54688,0.48438 -0.67969,1.23438 z"
           style="font-style:normal;font-variant:normal;font-weight:normal;font-stretch:normal;font-size:16px;line-height:0;font-family:'Futura Round';-inkscape-font-specification:'Futura Round';letter-spacing:0.2px;fill:#065075;fill-opacity:0.94901961;stroke-width:0.75590551;stroke-miterlimit:4;stroke-dasharray:none"
           id="path49"
           inkscape:connector-curvature="0" />
        <path
           d="m 232.82539,169.07553 q -0.92969,1.11718 -2.28906,1.11718 -1.47657,0 -2.41407,-1.13281 -0.78906,-0.95312 -0.78906,-2.39844 0,-1.67968 1.05469,-2.64843 0.89844,-0.82032 2.125,-0.82032 1.375,0 2.3125,1.10157 v -0.52344 q 0,-0.28125 0.0703,-0.35156 0.0703,-0.0703 0.35156,-0.0703 h 0.30469 q 0.28125,0 0.35156,0.0703 0.0703,0.0703 0.0703,0.35156 v 5.80469 q 0,0.28125 -0.0703,0.35156 -0.0703,0.0703 -0.35156,0.0703 h -0.30469 q -0.28125,0 -0.35156,-0.0703 -0.0703,-0.0703 -0.0703,-0.35156 z m -2.15625,-4.85157 q -0.95313,0 -1.59375,0.74219 -0.57813,0.67188 -0.57813,1.75 0,1.10156 0.70313,1.82031 0.60156,0.625 1.49219,0.625 1.05468,0 1.70312,-0.82812 0.50781,-0.64844 0.50781,-1.66406 0,-1.19532 -0.69531,-1.83594 -0.65625,-0.60938 -1.53906,-0.60938 z"
           style="font-style:normal;font-variant:normal;font-weight:normal;font-stretch:normal;font-size:16px;line-height:0;font-family:'Futura Round';-inkscape-font-specification:'Futura Round';letter-spacing:0.2px;fill:#065075;fill-opacity:0.94901961;stroke-width:0.75590551;stroke-miterlimit:4;stroke-dasharray:none"
           id="path51"
           inkscape:connector-curvature="0" />
        <path
           d="m 237.48633,164.06771 q 0.4375,-0.53906 0.73437,-0.71093 0.29688,-0.17188 0.78125,-0.17188 0.375,0 0.64063,0.10938 0.27344,0.10937 0.27344,0.27343 0,0.0703 -0.10938,0.28125 l -0.14844,0.27344 q -0.0937,0.17969 -0.14843,0.23438 -0.0547,0.0547 -0.14844,0.0547 -0.0625,0 -0.17188,-0.0625 -0.13281,-0.0781 -0.36718,-0.0781 -0.33594,0 -0.63282,0.17187 -0.29687,0.16407 -0.44531,0.42969 -0.25781,0.47656 -0.25781,1.625 v 3.07813 q 0,0.28125 -0.0703,0.35156 -0.0703,0.0703 -0.34375,0.0703 h -0.30469 q -0.28125,0 -0.35156,-0.0703 -0.0703,-0.0703 -0.0703,-0.35156 v -5.80469 q 0,-0.28125 0.0703,-0.35156 0.0703,-0.0703 0.35156,-0.0703 h 0.30469 q 0.27343,0 0.34375,0.0703 0.0703,0.0703 0.0703,0.35156 z"
           style="font-style:normal;font-variant:normal;font-weight:normal;font-stretch:normal;font-size:16px;line-height:0;font-family:'Futura Round';-inkscape-font-specification:'Futura Round';letter-spacing:0.2px;fill:#065075;fill-opacity:0.94901961;stroke-width:0.75590551;stroke-miterlimit:4;stroke-dasharray:none"
           id="path53"
           inkscape:connector-curvature="0" />
        <path
           d="m 246.17852,164.13803 v 0.44531 q 0,0.39062 -0.25782,0.39062 -0.0703,0 -0.1875,-0.0937 -0.47656,-0.36718 -0.83593,-0.50781 -0.35157,-0.14062 -0.79688,-0.14062 -1.07812,0 -1.75,0.78906 -0.60937,0.70312 -0.60937,1.67969 0,1.02343 0.65625,1.74218 0.65625,0.71094 1.67968,0.71094 0.47657,0 0.83594,-0.14062 0.35938,-0.14844 0.86719,-0.55469 0.10937,-0.0859 0.17969,-0.0859 0.25781,0 0.25781,0.375 v 0.44531 q 0,0.28907 -0.0937,0.36719 -0.36719,0.28125 -0.92969,0.45313 -0.5625,0.17968 -1.08594,0.17968 -1.70312,0 -2.72656,-1.24218 -0.80469,-0.97657 -0.80469,-2.23438 0,-1.5 1.07032,-2.55469 0.96875,-0.96093 2.46875,-0.96093 0.53906,0 1.10937,0.17187 0.57031,0.16406 0.86719,0.41406 0.0859,0.0703 0.0859,0.35157 z"
           style="font-style:normal;font-variant:normal;font-weight:normal;font-stretch:normal;font-size:16px;line-height:0;font-family:'Futura Round';-inkscape-font-specification:'Futura Round';letter-spacing:0.2px;fill:#065075;fill-opacity:0.94901961;stroke-width:0.75590551;stroke-miterlimit:4;stroke-dasharray:none"
           id="path55"
           inkscape:connector-curvature="0" />
        <path
           d="m 249.08945,164.13021 q 0.3125,-0.36718 0.57032,-0.53906 0.57031,-0.39062 1.33593,-0.39062 0.59375,0 1.10157,0.25 0.51562,0.24218 0.79687,0.65625 0.39063,0.57031 0.39063,1.77343 v 3.69532 q 0,0.28125 -0.0703,0.35156 -0.0703,0.0703 -0.34375,0.0703 h -0.30468 q -0.28125,0 -0.35157,-0.0703 -0.0703,-0.0703 -0.0703,-0.35156 v -3.61719 q 0,-0.79688 -0.21875,-1.17969 -0.32031,-0.54687 -1.15625,-0.54687 -1.03125,0 -1.41406,0.78906 -0.26563,0.54687 -0.26563,1.65625 v 2.89844 q 0,0.28125 -0.0703,0.35156 -0.0703,0.0703 -0.34375,0.0703 h -0.30469 q -0.28125,0 -0.35156,-0.0703 -0.0703,-0.0703 -0.0703,-0.35156 v -10.83594 q 0,-0.27344 0.0703,-0.34375 0.0703,-0.0703 0.35156,-0.0703 h 0.30469 q 0.27344,0 0.34375,0.0703 0.0703,0.0703 0.0703,0.34375 z"
           style="font-style:normal;font-variant:normal;font-weight:normal;font-stretch:normal;font-size:16px;line-height:0;font-family:'Futura Round';-inkscape-font-specification:'Futura Round';letter-spacing:0.2px;fill:#065075;fill-opacity:0.94901961;stroke-width:0.75590551;stroke-miterlimit:4;stroke-dasharray:none"
           id="path57"
           inkscape:connector-curvature="0" />
        <path
           d="m 199.7207,177.10938 v 3.16407 h 3.79688 q 0.27344,0 0.34375,0.0703 0.0703,0.0703 0.0703,0.35156 v 0.27344 q 0,0.27344 -0.0703,0.34375 -0.0703,0.0703 -0.34375,0.0703 h -3.79688 v 4.17188 h 3.91407 q 0.27343,0 0.34375,0.0703 0.0703,0.0703 0.0703,0.35156 v 0.26563 q 0,0.28125 -0.0703,0.35156 -0.0703,0.0703 -0.34375,0.0703 h -4.6875 q -0.28125,0 -0.35157,-0.0703 -0.0703,-0.0703 -0.0703,-0.35156 v -9.82813 q 0,-0.27344 0.0703,-0.34375 0.0703,-0.0703 0.35157,-0.0703 h 4.6875 q 0.27343,0 0.34375,0.0703 0.0703,0.0703 0.0703,0.34375 v 0.27344 q 0,0.28125 -0.0703,0.35156 -0.0703,0.0703 -0.34375,0.0703 z"
           style="letter-spacing:0.2px;stroke-width:0.75590551;stroke-miterlimit:4;stroke-dasharray:none"
           id="path59"
           inkscape:connector-curvature="0" />
        <path
           d="m 207.28008,180.82032 q 0.3125,-0.38281 0.5625,-0.5625 0.55469,-0.39844 1.34375,-0.39844 0.60156,0 1.10937,0.25 0.51563,0.24219 0.78907,0.66407 0.375,0.57031 0.375,1.76562 v 3.70313 q 0,0.28125 -0.0703,0.35156 -0.0703,0.0703 -0.34375,0.0703 h -0.3125 q -0.27343,0 -0.34375,-0.0703 -0.0703,-0.0703 -0.0703,-0.35156 v -3.50782 q 0,-0.92968 -0.21875,-1.28906 -0.33594,-0.55469 -1.17187,-0.55469 -0.86719,0 -1.25782,0.58594 -0.39062,0.57813 -0.39062,1.86719 v 2.89844 q 0,0.28125 -0.0703,0.35156 -0.0703,0.0703 -0.34375,0.0703 h -0.30469 q -0.28125,0 -0.35156,-0.0703 -0.0703,-0.0703 -0.0703,-0.35156 v -5.80469 q 0,-0.28125 0.0703,-0.35156 0.0703,-0.0703 0.35156,-0.0703 h 0.30469 q 0.27343,0 0.34375,0.0703 0.0703,0.0703 0.0703,0.35156 z"
           style="letter-spacing:0.2px;stroke-width:0.75590551;stroke-miterlimit:4;stroke-dasharray:none"
           id="path61"
           inkscape:connector-curvature="0" />
        <path
           d="m 215.92539,184.4922 1.83594,-4.17188 q 0.10156,-0.22656 0.15625,-0.26562 0.0625,-0.0391 0.3125,-0.0391 h 0.38281 q 0.42969,0 0.42188,0.22657 -0.008,0.0859 -0.0937,0.28125 l -2.72657,5.92968 q -0.13281,0.29688 -0.28906,0.29688 -0.17187,0 -0.30469,-0.29688 l -2.72656,-5.92968 q -0.0937,-0.20313 -0.0937,-0.28125 0,-0.22657 0.41406,-0.22657 h 0.39844 q 0.24219,0 0.30469,0.0391 0.0625,0.0391 0.15625,0.26562 z"
           style="letter-spacing:0.2px;stroke-width:0.75590551;stroke-miterlimit:4;stroke-dasharray:none"
           id="path63"
           inkscape:connector-curvature="0" />
        <path
           d="m 221.73477,180.43751 v 5.80469 q 0,0.28125 -0.0703,0.35156 -0.0703,0.0703 -0.34375,0.0703 h -0.30468 q -0.28125,0 -0.35157,-0.0703 -0.0703,-0.0703 -0.0703,-0.35156 v -5.80469 q 0,-0.28125 0.0703,-0.35156 0.0703,-0.0703 0.35157,-0.0703 h 0.30468 q 0.27344,0 0.34375,0.0703 0.0703,0.0703 0.0703,0.35156 z m -0.5625,-3.73438 q 0.33593,0 0.57031,0.24219 0.24219,0.23438 0.24219,0.57031 0,0.34375 -0.24219,0.58594 -0.23438,0.23438 -0.57813,0.23438 -0.33593,0 -0.57812,-0.24219 -0.23438,-0.24219 -0.23438,-0.58594 0,-0.32812 0.24219,-0.5625 0.24219,-0.24219 0.57813,-0.24219 z"
           style="letter-spacing:0.2px;stroke-width:0.75590551;stroke-miterlimit:4;stroke-dasharray:none"
           id="path65"
           inkscape:connector-curvature="0" />
        <path
           d="m 225.25508,180.73438 q 0.4375,-0.53906 0.73437,-0.71093 0.29688,-0.17188 0.78125,-0.17188 0.375,0 0.64063,0.10938 0.27343,0.10937 0.27343,0.27343 0,0.0703 -0.10937,0.28125 l -0.14844,0.27344 q -0.0937,0.17969 -0.14844,0.23438 -0.0547,0.0547 -0.14843,0.0547 -0.0625,0 -0.17188,-0.0625 -0.13281,-0.0781 -0.36719,-0.0781 -0.33593,0 -0.63281,0.17187 -0.29687,0.16407 -0.44531,0.42969 -0.25781,0.47656 -0.25781,1.625 v 3.07813 q 0,0.28125 -0.0703,0.35156 -0.0703,0.0703 -0.34375,0.0703 h -0.30468 q -0.28125,0 -0.35157,-0.0703 -0.0703,-0.0703 -0.0703,-0.35156 v -5.80469 q 0,-0.28125 0.0703,-0.35156 0.0703,-0.0703 0.35157,-0.0703 h 0.30468 q 0.27344,0 0.34375,0.0703 0.0703,0.0703 0.0703,0.35156 z"
           style="letter-spacing:0.2px;stroke-width:0.75590551;stroke-miterlimit:4;stroke-dasharray:none"
           id="path67"
           inkscape:connector-curvature="0" />
        <path
           d="m 231.86133,179.8672 q 1.57031,0 2.60937,1.14062 0.89844,0.98438 0.89844,2.35156 0,1.59375 -1.16406,2.625 -0.98438,0.875 -2.36719,0.875 -0.95312,0 -1.78125,-0.48437 -0.84375,-0.5 -1.29687,-1.36719 -0.40625,-0.76562 -0.40625,-1.70312 0,-1.45313 1.09375,-2.49219 1,-0.94531 2.41406,-0.94531 z m -0.0312,1.03125 q -1.11719,0 -1.78906,0.85937 -0.52344,0.66406 -0.52344,1.65625 0,1.0625 0.69531,1.75781 0.65625,0.65625 1.64063,0.65625 1.14843,0 1.83593,-0.85156 0.51563,-0.64844 0.51563,-1.60937 0,-1.125 -0.70313,-1.8125 -0.66406,-0.65625 -1.67187,-0.65625 z"
           style="letter-spacing:0.2px;stroke-width:0.75590551;stroke-miterlimit:4;stroke-dasharray:none"
           id="path69"
           inkscape:connector-curvature="0" />
        <path
           d="m 238.45977,180.82032 q 0.3125,-0.38281 0.5625,-0.5625 0.55468,-0.39844 1.34375,-0.39844 0.60156,0 1.10937,0.25 0.51563,0.24219 0.78906,0.66407 0.375,0.57031 0.375,1.76562 v 3.70313 q 0,0.28125 -0.0703,0.35156 -0.0703,0.0703 -0.34375,0.0703 h -0.3125 q -0.27344,0 -0.34375,-0.0703 -0.0703,-0.0703 -0.0703,-0.35156 v -3.50782 q 0,-0.92968 -0.21875,-1.28906 -0.33594,-0.55469 -1.17188,-0.55469 -0.86718,0 -1.25781,0.58594 -0.39062,0.57813 -0.39062,1.86719 v 2.89844 q 0,0.28125 -0.0703,0.35156 -0.0703,0.0703 -0.34375,0.0703 h -0.30468 q -0.28125,0 -0.35157,-0.0703 -0.0703,-0.0703 -0.0703,-0.35156 v -5.80469 q 0,-0.28125 0.0703,-0.35156 0.0703,-0.0703 0.35157,-0.0703 h 0.30468 q 0.27344,0 0.34375,0.0703 0.0703,0.0703 0.0703,0.35156 z"
           style="letter-spacing:0.2px;stroke-width:0.75590551;stroke-miterlimit:4;stroke-dasharray:none"
           id="path71"
           inkscape:connector-curvature="0" />
        <path
           d="m 246.15977,180.72657 q 0.26562,-0.35937 0.49218,-0.51562 0.49219,-0.35938 1.14844,-0.35938 1.23438,0 1.82031,1.08594 0.63282,-1.08594 1.94532,-1.08594 0.5625,0 1.03906,0.24219 0.48437,0.24219 0.75,0.65625 0.36719,0.57812 0.36719,1.69531 v 3.79688 q 0,0.28125 -0.0703,0.35156 -0.0703,0.0703 -0.35156,0.0703 h -0.29687 q -0.28125,0 -0.35157,-0.0703 -0.0703,-0.0703 -0.0703,-0.35156 v -3.60938 q 0,-0.83594 -0.21875,-1.22656 -0.28906,-0.51563 -0.96875,-0.51563 -1.42969,0 -1.42969,2.08594 v 3.26563 q 0,0.28125 -0.0703,0.35156 -0.0703,0.0703 -0.35156,0.0703 h -0.29688 q -0.28125,0 -0.35156,-0.0703 -0.0703,-0.0703 -0.0703,-0.35156 v -3.52344 q 0,-1.82813 -1.22656,-1.82813 -0.36719,0 -0.70313,0.20313 -0.32812,0.19531 -0.48437,0.51562 -0.25,0.49219 -0.25,1.4375 v 3.19532 q 0,0.28125 -0.0703,0.35156 -0.0703,0.0703 -0.34375,0.0703 h -0.30468 q -0.28125,0 -0.35157,-0.0703 -0.0703,-0.0703 -0.0703,-0.35156 v -5.80469 q 0,-0.28125 0.0703,-0.35156 0.0703,-0.0703 0.35157,-0.0703 h 0.30468 q 0.27344,0 0.34375,0.0703 0.0703,0.0703 0.0703,0.35156 z"
           style="letter-spacing:0.2px;stroke-width:0.75590551;stroke-miterlimit:4;stroke-dasharray:none"
           id="path73"
           inkscape:connector-curvature="0" />
        <path
           d="m 256.8832,183.57813 q 0.0312,0.67969 0.28125,1.14844 0.28125,0.52344 0.76563,0.8125 0.48437,0.28906 1.0625,0.28906 1.17968,0 1.85937,-1.09375 0.13281,-0.21875 0.27344,-0.21875 0.0625,0 0.26562,0.11719 l 0.23438,0.13281 q 0.28125,0.15625 0.28125,0.29688 0,0.0859 -0.0937,0.22656 -1.03125,1.57031 -2.85938,1.57031 -1.59375,0 -2.53125,-1.15625 -0.74218,-0.92187 -0.74218,-2.32031 0,-1.61719 0.94531,-2.59375 0.89062,-0.92187 2.27344,-0.92187 1.39843,0 2.28125,0.95312 0.88281,0.95313 0.88281,2.46875 0,0.17188 -0.0859,0.23438 -0.0859,0.0547 -0.33594,0.0547 z m 3.97656,-0.96093 q -0.10937,-0.55469 -0.38281,-0.92969 -0.58594,-0.78906 -1.5625,-0.78906 -0.72656,0 -1.28125,0.48437 -0.54687,0.48438 -0.67969,1.23438 z"
           style="font-style:normal;font-variant:normal;font-weight:normal;font-stretch:normal;font-size:16px;line-height:0;font-family:'Futura Round';-inkscape-font-specification:'Futura Round';letter-spacing:1.46000004px;fill:#065075;fill-opacity:0.94901961;stroke-width:0.75590551;stroke-miterlimit:4;stroke-dasharray:none"
           id="path75"
           inkscape:connector-curvature="0" />
        <path
           d="m 266.4057,180.82032 q 0.3125,-0.38281 0.5625,-0.5625 0.55469,-0.39844 1.34375,-0.39844 0.60156,0 1.10938,0.25 0.51562,0.24219 0.78906,0.66407 0.375,0.57031 0.375,1.76562 v 3.70313 q 0,0.28125 -0.0703,0.35156 -0.0703,0.0703 -0.34375,0.0703 h -0.3125 q -0.27344,0 -0.34375,-0.0703 -0.0703,-0.0703 -0.0703,-0.35156 v -3.50782 q 0,-0.92968 -0.21875,-1.28906 -0.33593,-0.55469 -1.17187,-0.55469 -0.86719,0 -1.25781,0.58594 -0.39063,0.57813 -0.39063,1.86719 v 2.89844 q 0,0.28125 -0.0703,0.35156 -0.0703,0.0703 -0.34375,0.0703 h -0.30469 q -0.28125,0 -0.35156,-0.0703 -0.0703,-0.0703 -0.0703,-0.35156 v -5.80469 q 0,-0.28125 0.0703,-0.35156 0.0703,-0.0703 0.35156,-0.0703 h 0.30469 q 0.27344,0 0.34375,0.0703 0.0703,0.0703 0.0703,0.35156 z"
           style="font-style:normal;font-variant:normal;font-weight:normal;font-stretch:normal;font-size:16px;line-height:0;font-family:'Futura Round';-inkscape-font-specification:'Futura Round';letter-spacing:1.46000004px;fill:#065075;fill-opacity:0.94901961;stroke-width:0.75590551;stroke-miterlimit:4;stroke-dasharray:none"
           id="path77"
           inkscape:connector-curvature="0" />
        <path
           d="m 275.37351,181.07032 v 5.17188 q 0,0.28125 -0.0703,0.35156 -0.0703,0.0703 -0.35156,0.0703 h -0.30469 q -0.27344,0 -0.34375,-0.0703 -0.0703,-0.0703 -0.0703,-0.35156 v -5.17188 h -0.27344 q -0.28125,0 -0.35156,-0.0703 -0.0703,-0.0703 -0.0703,-0.35156 v -0.21094 q 0,-0.28125 0.0703,-0.35156 0.0703,-0.0703 0.35156,-0.0703 h 0.27344 v -1.96875 q 0,-0.28125 0.0703,-0.35156 0.0703,-0.0703 0.34375,-0.0703 h 0.30469 q 0.28125,0 0.35156,0.0703 0.0703,0.0703 0.0703,0.35156 v 1.96875 h 0.75 q 0.28125,0 0.35156,0.0703 0.0703,0.0703 0.0703,0.35156 v 0.21094 q 0,0.28125 -0.0703,0.35156 -0.0703,0.0703 -0.35156,0.0703 z"
           style="font-style:normal;font-variant:normal;font-weight:normal;font-stretch:normal;font-size:16px;line-height:0;font-family:'Futura Round';-inkscape-font-specification:'Futura Round';letter-spacing:1.46000004px;fill:#065075;fill-opacity:0.94901961;stroke-width:0.75590551;stroke-miterlimit:4;stroke-dasharray:none"
           id="path79"
           inkscape:connector-curvature="0" />
      </g>
      <path
         inkscape:label="trazo_degradado"
         inkscape:connector-curvature="0"
         id="path965"
         d="m 54.475819,51.126491 0.14174,-16.81994"
         style="display:inline;fill:url(#radialGradient997);fill-opacity:1;fill-rule:nonzero;stroke:url(#radialGradient989);stroke-width:0.60811055;stroke-linecap:butt;stroke-linejoin:miter;stroke-miterlimit:4;stroke-dasharray:none;stroke-opacity:0.89411765" />
      <ellipse
         style="display:inline;fill:url(#radialGradient942);fill-opacity:1;fill-rule:nonzero;stroke:none;stroke-width:0.4101572;stroke-miterlimit:4;stroke-dasharray:none;stroke-opacity:0.89411765"
         id="path912"
         cx="54.546688"
         cy="42.716522"
         rx="0.36392012"
         ry="8.4125595"
         inkscape:label="elipse_degradada" />
      <flowRoot
         xml:space="preserve"
         id="flowRoot911"
         style="font-style:normal;font-variant:normal;font-weight:normal;font-stretch:normal;font-size:13.33333302px;line-height:1.25;font-family:Poppins;-inkscape-font-specification:Poppins;letter-spacing:0px;word-spacing:0px;fill:#000000;fill-opacity:1;stroke:none"
         transform="matrix(0.0962872,0,0,0.0962872,54.171829,34.304003)"><flowRegion
           id="flowRegion913"
           style="font-style:normal;font-variant:normal;font-weight:normal;font-stretch:normal;font-family:Poppins;-inkscape-font-specification:Poppins"><rect
             id="rect915"
             width="140.80153"
             height="122.80618"
             x="-166.82185"
             y="8.6456957"
             style="font-style:normal;font-variant:normal;font-weight:normal;font-stretch:normal;font-family:Poppins;-inkscape-font-specification:Poppins" /></flowRegion><flowPara
           id="flowPara917"></flowPara></flowRoot>    </g>
  </g>
</svg>
